<svg id="Layer_1" data-name="Layer 1" xmlns="http://www.w3.org/2000/svg" viewBox="0 0 738.42 187.14"><defs><style>.cls-1,.cls-11,.cls-14,.cls-7,.cls-9{fill:#4e7aa7;}.cls-2{fill:#76b7b2;}.cls-3{fill:#9c755f;}.cls-4{fill:#e15859;}.cls-14,.cls-5,.cls-6,.cls-8,.cls-9{font-size:8.1px;font-family:ProximaNova-Medium, Proxima Nova;font-weight:500;}.cls-5,.cls-6,.cls-8{fill:#231f20;}.cls-5{letter-spacing:0.03em;}.cls-11,.cls-13,.cls-6,.cls-9{letter-spacing:0.03em;}.cls-14,.cls-7,.cls-8{letter-spacing:0.03em;}.cls-10{letter-spacing:0.02em;}.cls-12{letter-spacing:-0.01em;}.cls-15,.cls-16,.cls-19,.cls-20,.cls-23{fill:none;stroke-miterlimit:10;}.cls-15{stroke:#231f20;}.cls-16,.cls-19{stroke:#333;}.cls-16,.cls-19,.cls-20,.cls-23{stroke-width:0.75px;}.cls-16{stroke-dasharray:8 8;}.cls-17{fill:#333;}.cls-18{fill:#b07aa1;}.cls-19{stroke-dasharray:12 12;}.cls-20{stroke:#bab0ac;}.cls-21{fill:#bab0ac;}.cls-22{fill:#59a14e;opacity:0.8;}.cls-23{stroke:#bab0ad;}.cls-24{fill:#bab0ad;}</style></defs><title>directory-rendering</title><path class="cls-1" d="M562.74,171.71v.35h-7.37v-7.37h.35a1.39,1.39,0,0,1,1,.41l5.64,5.63A1.44,1.44,0,0,1,562.74,171.71Zm-7.83,2.19a1.38,1.38,0,0,1-1.38-1.38v-7.83H542a1.38,1.38,0,0,0-1.38,1.38v26.72a1.38,1.38,0,0,0,1.38,1.38h19.35a1.38,1.38,0,0,0,1.38-1.38V173.9Zm-7.18,13.85a.31.31,0,0,1-.44,0h0l-3.74-3.5a.31.31,0,0,1,0-.44h0l3.74-3.5a.31.31,0,0,1,.44,0h0l1.12,1.2a.31.31,0,0,1,0,.44h0L546.48,184l2.35,2.06a.31.31,0,0,1,0,.44h0l-1.12,1.2Zm2.95,2.91-1.58-.46a.31.31,0,0,1-.21-.39l3.53-12.18a.31.31,0,0,1,.39-.21l1.58.45a.32.32,0,0,1,.21.39h0l-3.54,12.18a.31.31,0,0,1-.38.22Zm9.26-6.4-3.74,3.5a.31.31,0,0,1-.44,0h0l-1.13-1.2a.31.31,0,0,1,0-.44h0L557,184,554.66,182a.31.31,0,0,1,0-.44h0l1.13-1.2a.31.31,0,0,1,.44,0h0l3.74,3.5a.31.31,0,0,1,0,.44Z" transform="translate(-28.2 -101.82)"/><path class="cls-2" d="M309.12,171.71v.35h-7.37v-7.37h.35a1.38,1.38,0,0,1,1,.41l5.64,5.63A1.4,1.4,0,0,1,309.12,171.71Zm-7.83,2.19a1.39,1.39,0,0,1-1.39-1.38v-7.83H288.39a1.38,1.38,0,0,0-1.38,1.38v26.72a1.38,1.38,0,0,0,1.38,1.38h19.34a1.38,1.38,0,0,0,1.39-1.38V173.9Zm-7.19,13.85a.3.3,0,0,1-.44,0h0l-3.73-3.5a.31.31,0,0,1,0-.44h0l3.73-3.5a.31.31,0,0,1,.44,0h0l1.13,1.2a.3.3,0,0,1,0,.44h0L292.86,184l2.35,2.06a.31.31,0,0,1,0,.44h0l-1.13,1.2Zm3,2.91-1.59-.46a.32.32,0,0,1-.21-.39l3.54-12.18a.31.31,0,0,1,.39-.21l1.58.45a.32.32,0,0,1,.21.39h0l-3.54,12.18a.32.32,0,0,1-.38.22Zm9.25-6.4-3.73,3.5a.3.3,0,0,1-.44,0h0l-1.13-1.2a.31.31,0,0,1,0-.44h0l2.35-2.06L301,182a.31.31,0,0,1,0-.44h0l1.13-1.2a.31.31,0,0,1,.44,0h0l3.73,3.5a.31.31,0,0,1,0,.44Z" transform="translate(-28.2 -101.82)"/><path class="cls-3" d="M530.65,221.63,526.36,229a3.8,3.8,0,0,1-3.27,1.88h-23.7a1.42,1.42,0,0,1-1.23-2.14l4.29-7.36a3.81,3.81,0,0,1,3.28-1.88h23.69A1.42,1.42,0,0,1,530.65,221.63Zm-24.92-4h19.43v-2.85a2.84,2.84,0,0,0-2.84-2.84h-9.48l-3.79-3.79h-9.48a2.85,2.85,0,0,0-2.85,2.84v16.48l4.09-7A5.72,5.72,0,0,1,505.73,217.6Z" transform="translate(-28.2 -101.82)"/><path class="cls-4" d="M396.39,210.83v-7.94H384.71a1.4,1.4,0,0,0-1.41,1.4v27.1a1.4,1.4,0,0,0,1.41,1.4h19.62a1.39,1.39,0,0,0,1.4-1.4V212.23h-7.94A1.4,1.4,0,0,1,396.39,210.83Zm3.74,13.78a.71.71,0,0,1-.7.71h-9.82a.71.71,0,0,1-.7-.71v-.46a.7.7,0,0,1,.7-.7h9.82a.7.7,0,0,1,.7.7Zm0-3.73a.71.71,0,0,1-.7.7h-9.82a.71.71,0,0,1-.7-.7v-.47a.7.7,0,0,1,.7-.7h9.82a.7.7,0,0,1,.7.7Zm0-4.21v.47a.71.71,0,0,1-.7.7h-9.82a.71.71,0,0,1-.7-.7v-.47a.7.7,0,0,1,.7-.7h9.82A.7.7,0,0,1,400.13,216.67Zm5.6-6.66v.35h-7.47v-7.47h.35a1.42,1.42,0,0,1,1,.4l5.72,5.73A1.4,1.4,0,0,1,405.73,210Z" transform="translate(-28.2 -101.82)"/><text class="cls-5" transform="translate(341.85 142.09)">analysis.Rmd</text><text class="cls-6" transform="translate(464.65 17.24)">knitr::<tspan class="cls-7" x="21.39" y="0">render()</tspan></text><text class="cls-8" transform="translate(629.63 17.24)">ggplot2::<tspan class="cls-1" x="33.84" y="0">ggsave()</tspan></text><text class="cls-9" transform="translate(211.06 6.75)">read<tspan class="cls-10" x="17.23" y="0">.</tspan><tspan x="19.35" y="0">csv()</tspan></text><text class="cls-5" transform="translate(438.08 70.23)">knitr::<tspan class="cls-11" x="21.39" y="0">render()</tspan></text><path class="cls-4" d="M456.93,210.83v-7.94H445.25a1.4,1.4,0,0,0-1.4,1.4v27.1a1.4,1.4,0,0,0,1.4,1.4h19.63a1.4,1.4,0,0,0,1.4-1.4V212.23h-7.94A1.41,1.41,0,0,1,456.93,210.83Zm3.74,13.78a.7.7,0,0,1-.7.71h-9.81a.7.7,0,0,1-.7-.71v-.46a.7.7,0,0,1,.7-.7H460a.7.7,0,0,1,.7.7Zm0-3.73a.7.7,0,0,1-.7.7h-9.81a.7.7,0,0,1-.7-.7v-.47a.7.7,0,0,1,.7-.7H460a.7.7,0,0,1,.7.7Zm0-4.21v.47a.7.7,0,0,1-.7.7h-9.81a.7.7,0,0,1-.7-.7v-.47a.7.7,0,0,1,.7-.7H460A.7.7,0,0,1,460.67,216.67Zm5.61-6.66v.35H458.8v-7.47h.36a1.4,1.4,0,0,1,1,.4l5.72,5.73A1.41,1.41,0,0,1,466.28,210Z" transform="translate(-28.2 -101.82)"/><text class="cls-5" transform="translate(403.07 142.09)">ind<tspan class="cls-12" x="11.82" y="0">e</tspan><tspan class="cls-13" x="16.31" y="0">x.Rmd</tspan></text><text class="cls-6" transform="translate(501.77 102.18)">ind<tspan class="cls-12" x="11.82" y="0">e</tspan><tspan x="16.31" y="0">x.html</tspan></text><text class="cls-5" transform="translate(253.55 102.18)">function.R</text><text class="cls-14" transform="matrix(0.96, 0.27, -0.27, 0.96, 300.9, 104.79)">source()</text><path class="cls-1" d="M627.64,171.71v.35h-7.37v-7.37h.35a1.39,1.39,0,0,1,1,.41l5.64,5.63A1.39,1.39,0,0,1,627.64,171.71Zm-7.83,2.19a1.38,1.38,0,0,1-1.38-1.38v-7.83H606.92a1.38,1.38,0,0,0-1.38,1.38v26.72a1.38,1.38,0,0,0,1.38,1.38h19.34a1.38,1.38,0,0,0,1.38-1.38V173.9Zm-7.18,13.85a.31.31,0,0,1-.44,0h0l-3.74-3.5a.31.31,0,0,1,0-.44h0l3.74-3.5a.31.31,0,0,1,.44,0h0l1.13,1.2a.31.31,0,0,1,0,.44h0L611.39,184l2.34,2.06a.31.31,0,0,1,0,.44h0l-1.13,1.2Zm3,2.91L614,190.2a.32.32,0,0,1-.21-.39l3.54-12.18a.3.3,0,0,1,.38-.21l1.58.45a.31.31,0,0,1,.21.39h0L616,190.44a.32.32,0,0,1-.39.22Zm9.26-6.4-3.74,3.5a.29.29,0,0,1-.43,0h0l-1.13-1.2a.31.31,0,0,1,0-.44h0l2.35-2.06L619.56,182a.31.31,0,0,1,0-.44h0l1.13-1.2a.31.31,0,0,1,.44,0h0l3.73,3.5a.31.31,0,0,1,0,.44Z" transform="translate(-28.2 -101.82)"/><text class="cls-6" transform="translate(564.36 102.18)">analysis.html</text><text class="cls-8" transform="translate(699.73 102.18)">figur<tspan class="cls-10" x="17.19" y="0">e</tspan><tspan class="cls-13" x="21.92" y="0">.png</tspan></text><text class="cls-5" transform="translate(474.12 139.08)">docs</text><path class="cls-3" d="M269.23,223.85l-4.29,7.36a3.81,3.81,0,0,1-3.28,1.88H238a1.42,1.42,0,0,1-1.23-2.14L241,223.6a3.78,3.78,0,0,1,3.27-1.88H268A1.42,1.42,0,0,1,269.23,223.85Zm-24.93-4h19.44V217a2.86,2.86,0,0,0-2.85-2.85h-9.48l-3.79-3.79h-9.48a2.84,2.84,0,0,0-2.84,2.84v16.48l4.09-7A5.71,5.71,0,0,1,244.3,219.82Z" transform="translate(-28.2 -101.82)"/><text class="cls-6" transform="translate(220.39 141.3)">R</text><path class="cls-3" d="M62.13,266.94l-4.29,7.36a3.81,3.81,0,0,1-3.28,1.88H30.86A1.42,1.42,0,0,1,29.64,274l4.29-7.36a3.79,3.79,0,0,1,3.27-1.88H60.9A1.42,1.42,0,0,1,62.13,266.94Zm-24.93-4H56.64v-2.85a2.85,2.85,0,0,0-2.85-2.84H44.31l-3.79-3.79H31a2.84,2.84,0,0,0-2.84,2.84v16.47l4.09-7A5.7,5.7,0,0,1,37.2,262.91Z" transform="translate(-28.2 -101.82)"/><text class="cls-6" transform="translate(5.6 184.39)">root</text><polyline class="cls-15" points="367.56 174.41 425.08 174.41 425.08 154.81"/><polyline class="cls-15" points="50.72 174.41 106.83 174.41 106.83 154.81"/><polyline class="cls-15" points="506.71 126.86 522.77 126.86 522.77 109.82"/><polyline class="cls-15" points="253.94 126.86 270.01 126.86 270.01 109.82"/><text class="cls-5" transform="translate(141.51 102.18)">data<tspan class="cls-10" x="16.75" y="0">.</tspan><tspan x="18.87" y="0">csv</tspan></text><path class="cls-3" d="M155.2,223.85l-4.29,7.36a3.81,3.81,0,0,1-3.28,1.88h-23.7a1.42,1.42,0,0,1-1.22-2.14L127,223.6a3.77,3.77,0,0,1,3.27-1.88H154A1.42,1.42,0,0,1,155.2,223.85Zm-24.93-4h19.44V217a2.86,2.86,0,0,0-2.85-2.85h-9.48l-3.79-3.79h-9.48a2.84,2.84,0,0,0-2.84,2.84v16.48l4.09-7A5.7,5.7,0,0,1,130.27,219.82Z" transform="translate(-28.2 -101.82)"/><text class="cls-5" transform="translate(100.21 141.3)">data</text><polyline class="cls-15" points="139.91 126.86 155.98 126.86 155.98 109.82"/><polyline class="cls-15" points="425.08 174.41 485.63 174.41 485.63 154.23"/><path class="cls-3" d="M699,221.63,694.68,229a3.81,3.81,0,0,1-3.28,1.88H667.7a1.42,1.42,0,0,1-1.22-2.14l4.29-7.36a3.79,3.79,0,0,1,3.27-1.88h23.7A1.42,1.42,0,0,1,699,221.63Zm-24.93-4h19.44v-2.85a2.85,2.85,0,0,0-2.85-2.84h-9.48l-3.79-3.79h-9.48A2.84,2.84,0,0,0,665,211v16.48l4.09-7A5.7,5.7,0,0,1,674,217.6Z" transform="translate(-28.2 -101.82)"/><text class="cls-6" transform="translate(644.56 139.08)">figs</text><polyline class="cls-15" points="485.4 174.41 650.55 174.41 650.55 154.23"/><polyline class="cls-15" points="522.77 126.86 587.5 126.86 587.5 109.56"/><polyline class="cls-15" points="677.24 126.86 721.11 126.86 721.11 109.56"/><polyline class="cls-16" points="365.71 90.02 365.71 28.8 584.88 28.8 584.88 43.52"/><polygon class="cls-17" points="581.14 42.43 584.88 48.91 588.62 42.43 581.14 42.43"/><path class="cls-18" d="M758.75,170.87v.36h-7.69v-7.69h.37a1.46,1.46,0,0,1,1,.42l5.88,5.89A1.43,1.43,0,0,1,758.75,170.87Zm-8.17,2.28a1.45,1.45,0,0,1-1.44-1.44v-8.17h-12a1.44,1.44,0,0,0-1.44,1.44v27.87a1.43,1.43,0,0,0,1.44,1.44h20.18a1.44,1.44,0,0,0,1.44-1.44v-19.7Zm-8.13,1a2.89,2.89,0,1,1-2.89,2.89A2.88,2.88,0,0,1,742.45,174.11Zm12.49,14.42H739.56l0-2.91,2.38-2.38a.69.69,0,0,1,1,0l2.37,2.37,6.22-6.21a.72.72,0,0,1,1,0l2.37,2.37v6.73Z" transform="translate(-28.2 -101.82)"/><polyline class="cls-16" points="586.67 28.8 718.99 28.8 718.99 42.67"/><polygon class="cls-17" points="715.25 41.57 718.99 48.05 722.73 41.57 715.25 41.57"/><polyline class="cls-19" points="424.17 92.43 424.17 77.62 495.93 77.62"/><polygon class="cls-17" points="494.83 81.36 501.31 77.62 494.83 73.88 494.83 81.36"/><line class="cls-20" x1="296.49" y1="107.89" x2="332.82" y2="118.27"/><polygon class="cls-21" points="330.74 121.57 337.99 119.75 332.79 114.38 330.74 121.57"/><polyline class="cls-15" points="106.83 174.41 228.19 174.41 349.25 174.41 367.56 174.41 367.56 157.06"/><path class="cls-22" d="M186.33,173v-8.15h-12a1.44,1.44,0,0,0-1.44,1.44v27.81a1.44,1.44,0,0,0,1.44,1.44h20.15a1.43,1.43,0,0,0,1.43-1.44V174.45h-8.15A1.45,1.45,0,0,1,186.33,173Zm-5.75,8.63a.48.48,0,0,1-.48.48h-.48a1,1,0,0,0-1,1V185a1,1,0,0,0,1,1h.48a.48.48,0,0,1,.48.48v1a.49.49,0,0,1-.48.48h-.48a2.88,2.88,0,0,1-2.88-2.88v-1.92a2.88,2.88,0,0,1,2.88-2.88h.48a.49.49,0,0,1,.48.48Zm2.65,6.24h-.73a.48.48,0,0,1-.48-.48v-1a.47.47,0,0,1,.48-.48h.73c.36,0,.63-.21.63-.4a.32.32,0,0,0-.13-.23l-1.31-1.12a2.23,2.23,0,0,1-.8-1.69,2.44,2.44,0,0,1,2.54-2.32h.73a.48.48,0,0,1,.48.48v1a.47.47,0,0,1-.48.48h-.73c-.36,0-.63.21-.63.4a.32.32,0,0,0,.13.23l1.31,1.12a2.23,2.23,0,0,1,.8,1.69,2.44,2.44,0,0,1-2.54,2.32Zm5-7.2v1.25a6.52,6.52,0,0,0,1,3.41,6.52,6.52,0,0,0,1-3.41v-1.25a.48.48,0,0,1,.48-.48h1a.49.49,0,0,1,.48.48v1.25a8.21,8.21,0,0,1-2.18,5.64.95.95,0,0,1-1.4,0,8.21,8.21,0,0,1-2.18-5.64v-1.25a.49.49,0,0,1,.48-.48h1A.48.48,0,0,1,188.25,180.68Zm7.25-9.53-5.86-5.87a1.45,1.45,0,0,0-1-.42h-.37v7.67h7.67v-.37A1.44,1.44,0,0,0,195.5,171.15Z" transform="translate(-28.2 -101.82)"/><polyline class="cls-23" points="154.22 54.16 154.22 12.2 281.24 12.2 339.25 87.45"/><polygon class="cls-24" points="335.62 88.87 342.53 91.72 341.54 84.3 335.62 88.87"/><line class="cls-15" x1="223.64" y1="154.12" x2="223.64" y2="174.53"/></svg>