<svg id="Layer_1" data-name="Layer 1" xmlns="http://www.w3.org/2000/svg" viewBox="0 0 739.79 189.03"><defs><style>.cls-1,.cls-10,.cls-6,.cls-7,.cls-8{fill:#4e7aa7;}.cls-2{fill:#76b7b2;}.cls-3{fill:#9c755f;}.cls-4{fill:#e15859;}.cls-10,.cls-5,.cls-7,.cls-9{font-size:8.5px;font-family:Helvetica;}.cls-5,.cls-9{fill:#231f20;}.cls-10,.cls-5{letter-spacing:0.05em;}.cls-6,.cls-7{letter-spacing:0.05em;}.cls-8,.cls-9{letter-spacing:0.05em;}.cls-11,.cls-12,.cls-15,.cls-16,.cls-19{fill:none;stroke-miterlimit:10;}.cls-11{stroke:#231f20;}.cls-12,.cls-15{stroke:#333;}.cls-12,.cls-15,.cls-16,.cls-19{stroke-width:0.75px;}.cls-12{stroke-dasharray:8 8;}.cls-13{fill:#333;}.cls-14{fill:#b07aa1;}.cls-15{stroke-dasharray:12 12;}.cls-16{stroke:#bab0ac;}.cls-17{fill:#bab0ac;}.cls-18{fill:#59a14e;opacity:0.8;}.cls-19{stroke:#bab0ad;}.cls-20{fill:#bab0ad;}</style></defs><title>directory-rendering</title><path class="cls-1" d="M562.74,171.71v.35h-7.37v-7.37h.35a1.39,1.39,0,0,1,1,.41l5.64,5.63A1.44,1.44,0,0,1,562.74,171.71Zm-7.83,2.19a1.38,1.38,0,0,1-1.38-1.38v-7.83H542a1.38,1.38,0,0,0-1.38,1.38v26.72a1.38,1.38,0,0,0,1.38,1.38h19.35a1.38,1.38,0,0,0,1.38-1.38V173.9Zm-7.18,13.85a.31.31,0,0,1-.44,0h0l-3.74-3.5a.31.31,0,0,1,0-.44h0l3.74-3.5a.31.31,0,0,1,.44,0h0l1.12,1.2a.31.31,0,0,1,0,.44h0L546.48,184l2.35,2.06a.31.31,0,0,1,0,.44h0l-1.12,1.2Zm2.95,2.91-1.58-.46a.31.31,0,0,1-.21-.39l3.53-12.18a.31.31,0,0,1,.39-.21l1.58.45a.32.32,0,0,1,.21.39h0l-3.54,12.18a.31.31,0,0,1-.38.22Zm9.26-6.4-3.74,3.5a.31.31,0,0,1-.44,0h0l-1.13-1.2a.31.31,0,0,1,0-.44h0L557,184,554.66,182a.31.31,0,0,1,0-.44h0l1.13-1.2a.31.31,0,0,1,.44,0h0l3.74,3.5a.31.31,0,0,1,0,.44Z" transform="translate(-28.2 -101.27)"/><path class="cls-2" d="M309.12,171.71v.35h-7.37v-7.37h.35a1.38,1.38,0,0,1,1,.41l5.64,5.63A1.4,1.4,0,0,1,309.12,171.71Zm-7.83,2.19a1.39,1.39,0,0,1-1.39-1.38v-7.83H288.39a1.38,1.38,0,0,0-1.38,1.38v26.72a1.38,1.38,0,0,0,1.38,1.38h19.34a1.38,1.38,0,0,0,1.39-1.38V173.9Zm-7.19,13.85a.3.3,0,0,1-.44,0h0l-3.73-3.5a.31.31,0,0,1,0-.44h0l3.73-3.5a.31.31,0,0,1,.44,0h0l1.13,1.2a.3.3,0,0,1,0,.44h0L292.86,184l2.35,2.06a.31.31,0,0,1,0,.44h0l-1.13,1.2Zm3,2.91-1.59-.46a.32.32,0,0,1-.21-.39l3.54-12.18a.31.31,0,0,1,.39-.21l1.58.45a.32.32,0,0,1,.21.39h0l-3.54,12.18a.32.32,0,0,1-.38.22Zm9.25-6.4-3.73,3.5a.3.3,0,0,1-.44,0h0l-1.13-1.2a.31.31,0,0,1,0-.44h0l2.35-2.06L301,182a.31.31,0,0,1,0-.44h0l1.13-1.2a.31.31,0,0,1,.44,0h0l3.73,3.5a.31.31,0,0,1,0,.44Z" transform="translate(-28.2 -101.27)"/><path class="cls-3" d="M530.65,221.63,526.36,229a3.8,3.8,0,0,1-3.27,1.88h-23.7a1.42,1.42,0,0,1-1.23-2.14l4.29-7.36a3.81,3.81,0,0,1,3.28-1.88h23.69A1.42,1.42,0,0,1,530.65,221.63Zm-24.92-4h19.43v-2.85a2.84,2.84,0,0,0-2.84-2.84h-9.48l-3.79-3.79h-9.48a2.85,2.85,0,0,0-2.85,2.84v16.48l4.09-7A5.72,5.72,0,0,1,505.73,217.6Z" transform="translate(-28.2 -101.27)"/><path class="cls-4" d="M396.39,210.83v-7.94H384.71a1.4,1.4,0,0,0-1.41,1.4v27.1a1.4,1.4,0,0,0,1.41,1.4h19.62a1.39,1.39,0,0,0,1.4-1.4V212.23h-7.94A1.4,1.4,0,0,1,396.39,210.83Zm3.74,13.78a.71.71,0,0,1-.7.71h-9.82a.71.71,0,0,1-.7-.71v-.46a.7.7,0,0,1,.7-.7h9.82a.7.7,0,0,1,.7.7Zm0-3.73a.71.71,0,0,1-.7.7h-9.82a.71.71,0,0,1-.7-.7v-.47a.7.7,0,0,1,.7-.7h9.82a.7.7,0,0,1,.7.7Zm0-4.21v.47a.71.71,0,0,1-.7.7h-9.82a.71.71,0,0,1-.7-.7v-.47a.7.7,0,0,1,.7-.7h9.82A.7.7,0,0,1,400.13,216.67Zm5.6-6.66v.35h-7.47v-7.47h.35a1.42,1.42,0,0,1,1,.4l5.72,5.73A1.4,1.4,0,0,1,405.73,210Z" transform="translate(-28.2 -101.27)"/><text class="cls-5" transform="translate(339.87 142.65)">analysis.Rmd</text><text class="cls-5" transform="translate(462.66 17.79)">knitr::<tspan class="cls-6" x="23.76" y="0">render()</tspan></text><text class="cls-5" transform="translate(627.64 17.79)">ggplot2::<tspan class="cls-1" x="36.43" y="0">ggsave()</tspan></text><text class="cls-7" transform="translate(209.07 7.3)">read.csv()</text><text class="cls-5" transform="translate(436.1 70.78)">knitr::<tspan class="cls-8" x="23.76" y="0">render()</tspan></text><path class="cls-4" d="M456.93,210.83v-7.94H445.25a1.4,1.4,0,0,0-1.4,1.4v27.1a1.4,1.4,0,0,0,1.4,1.4h19.63a1.4,1.4,0,0,0,1.4-1.4V212.23h-7.94A1.41,1.41,0,0,1,456.93,210.83Zm3.74,13.78a.7.7,0,0,1-.7.71h-9.81a.7.7,0,0,1-.7-.71v-.46a.7.7,0,0,1,.7-.7H460a.7.7,0,0,1,.7.7Zm0-3.73a.7.7,0,0,1-.7.7h-9.81a.7.7,0,0,1-.7-.7v-.47a.7.7,0,0,1,.7-.7H460a.7.7,0,0,1,.7.7Zm0-4.21v.47a.7.7,0,0,1-.7.7h-9.81a.7.7,0,0,1-.7-.7v-.47a.7.7,0,0,1,.7-.7H460A.7.7,0,0,1,460.67,216.67Zm5.61-6.66v.35H458.8v-7.47h.36a1.4,1.4,0,0,1,1,.4l5.72,5.73A1.41,1.41,0,0,1,466.28,210Z" transform="translate(-28.2 -101.27)"/><text class="cls-9" transform="translate(403.73 142.65)">index.Rmd</text><text class="cls-5" transform="translate(501.1 102.74)">index.html</text><text class="cls-5" transform="translate(251.56 102.74)">function.R</text><text class="cls-10" transform="translate(298.92 105.29) rotate(15.68)">source()</text><path class="cls-1" d="M627.64,171.71v.35h-7.37v-7.37h.35a1.39,1.39,0,0,1,1,.41l5.64,5.63A1.39,1.39,0,0,1,627.64,171.71Zm-7.83,2.19a1.38,1.38,0,0,1-1.38-1.38v-7.83H606.92a1.38,1.38,0,0,0-1.38,1.38v26.72a1.38,1.38,0,0,0,1.38,1.38h19.34a1.38,1.38,0,0,0,1.38-1.38V173.9Zm-7.18,13.85a.31.31,0,0,1-.44,0h0l-3.74-3.5a.31.31,0,0,1,0-.44h0l3.74-3.5a.31.31,0,0,1,.44,0h0l1.13,1.2a.31.31,0,0,1,0,.44h0L611.39,184l2.34,2.06a.31.31,0,0,1,0,.44h0l-1.13,1.2Zm3,2.91L614,190.2a.32.32,0,0,1-.21-.39l3.54-12.18a.3.3,0,0,1,.38-.21l1.58.45a.31.31,0,0,1,.21.39h0L616,190.44a.32.32,0,0,1-.39.22Zm9.26-6.4-3.74,3.5a.29.29,0,0,1-.43,0h0l-1.13-1.2a.31.31,0,0,1,0-.44h0l2.35-2.06L619.56,182a.31.31,0,0,1,0-.44h0l1.13-1.2a.31.31,0,0,1,.44,0h0l3.73,3.5a.31.31,0,0,1,0,.44Z" transform="translate(-28.2 -101.27)"/><text class="cls-5" transform="translate(562.37 102.74)">analysis.html</text><text class="cls-5" transform="translate(697.74 102.74)">figure.png</text><text class="cls-5" transform="translate(472.13 139.63)">docs</text><path class="cls-3" d="M269.23,223.85l-4.29,7.36a3.81,3.81,0,0,1-3.28,1.88H238a1.42,1.42,0,0,1-1.23-2.14L241,223.6a3.78,3.78,0,0,1,3.27-1.88H268A1.42,1.42,0,0,1,269.23,223.85Zm-24.93-4h19.44V217a2.86,2.86,0,0,0-2.85-2.85h-9.48l-3.79-3.79h-9.48a2.84,2.84,0,0,0-2.84,2.84v16.48l4.09-7A5.71,5.71,0,0,1,244.3,219.82Z" transform="translate(-28.2 -101.27)"/><text class="cls-5" transform="translate(218.41 141.85)">R</text><path class="cls-3" d="M62.13,266.94l-4.29,7.36a3.81,3.81,0,0,1-3.28,1.88H30.86A1.42,1.42,0,0,1,29.64,274l4.29-7.36a3.79,3.79,0,0,1,3.27-1.88H60.9A1.42,1.42,0,0,1,62.13,266.94Zm-24.93-4H56.64v-2.85a2.85,2.85,0,0,0-2.85-2.84H44.31l-3.79-3.79H31a2.84,2.84,0,0,0-2.84,2.84v16.47l4.09-7A5.7,5.7,0,0,1,37.2,262.91Z" transform="translate(-28.2 -101.27)"/><text class="cls-5" transform="translate(3.61 184.94)">root</text><polyline class="cls-11" points="367.56 174.97 425.08 174.97 425.08 155.37"/><polyline class="cls-11" points="50.72 174.97 106.83 174.97 106.83 155.37"/><polyline class="cls-11" points="506.71 127.41 522.77 127.41 522.77 110.38"/><polyline class="cls-11" points="253.94 127.41 270.01 127.41 270.01 110.38"/><text class="cls-9" transform="translate(139.52 102.74)">data.csv</text><path class="cls-3" d="M155.2,223.85l-4.29,7.36a3.81,3.81,0,0,1-3.28,1.88h-23.7a1.42,1.42,0,0,1-1.22-2.14L127,223.6a3.77,3.77,0,0,1,3.27-1.88H154A1.42,1.42,0,0,1,155.2,223.85Zm-24.93-4h19.44V217a2.86,2.86,0,0,0-2.85-2.85h-9.48l-3.79-3.79h-9.48a2.84,2.84,0,0,0-2.84,2.84v16.48l4.09-7A5.7,5.7,0,0,1,130.27,219.82Z" transform="translate(-28.2 -101.27)"/><text class="cls-5" transform="translate(98.22 141.85)">data</text><polyline class="cls-11" points="139.91 127.41 155.98 127.41 155.98 110.38"/><polyline class="cls-11" points="425.08 174.97 485.63 174.97 485.63 154.78"/><path class="cls-3" d="M699,221.63,694.68,229a3.81,3.81,0,0,1-3.28,1.88H667.7a1.42,1.42,0,0,1-1.22-2.14l4.29-7.36a3.79,3.79,0,0,1,3.27-1.88h23.7A1.42,1.42,0,0,1,699,221.63Zm-24.93-4h19.44v-2.85a2.85,2.85,0,0,0-2.85-2.84h-9.48l-3.79-3.79h-9.48A2.84,2.84,0,0,0,665,211v16.48l4.09-7A5.7,5.7,0,0,1,674,217.6Z" transform="translate(-28.2 -101.27)"/><text class="cls-5" transform="translate(642.57 139.63)">figs</text><polyline class="cls-11" points="485.4 174.97 650.55 174.97 650.55 154.78"/><polyline class="cls-11" points="522.77 127.41 587.5 127.41 587.5 110.11"/><polyline class="cls-11" points="677.24 127.41 721.11 127.41 721.11 110.11"/><polyline class="cls-12" points="365.71 90.57 365.71 29.36 584.88 29.36 584.88 44.08"/><polygon class="cls-13" points="581.14 42.98 584.88 49.46 588.62 42.98 581.14 42.98"/><path class="cls-14" d="M758.75,170.87v.36h-7.69v-7.69h.37a1.46,1.46,0,0,1,1,.42l5.88,5.89A1.43,1.43,0,0,1,758.75,170.87Zm-8.17,2.28a1.45,1.45,0,0,1-1.44-1.44v-8.17h-12a1.44,1.44,0,0,0-1.44,1.44v27.87a1.43,1.43,0,0,0,1.44,1.44h20.18a1.44,1.44,0,0,0,1.44-1.44v-19.7Zm-8.13,1a2.89,2.89,0,1,1-2.89,2.89A2.88,2.88,0,0,1,742.45,174.11Zm12.49,14.42H739.56l0-2.91,2.38-2.38a.69.69,0,0,1,1,0l2.37,2.37,6.22-6.21a.72.72,0,0,1,1,0l2.37,2.37v6.73Z" transform="translate(-28.2 -101.27)"/><polyline class="cls-12" points="586.67 29.36 718.99 29.36 718.99 43.22"/><polygon class="cls-13" points="715.25 42.13 718.99 48.6 722.73 42.13 715.25 42.13"/><polyline class="cls-15" points="424.17 92.99 424.17 78.17 495.93 78.17"/><polygon class="cls-13" points="494.83 81.91 501.31 78.17 494.83 74.43 494.83 81.91"/><line class="cls-16" x1="296.49" y1="108.45" x2="332.82" y2="118.83"/><polygon class="cls-17" points="330.74 122.12 337.99 120.31 332.79 114.93 330.74 122.12"/><polyline class="cls-11" points="106.83 174.97 228.19 174.97 349.25 174.97 367.56 174.97 367.56 157.61"/><path class="cls-18" d="M186.33,173v-8.15h-12a1.44,1.44,0,0,0-1.44,1.44v27.81a1.44,1.44,0,0,0,1.44,1.44h20.15a1.43,1.43,0,0,0,1.43-1.44V174.45h-8.15A1.45,1.45,0,0,1,186.33,173Zm-5.75,8.63a.48.48,0,0,1-.48.48h-.48a1,1,0,0,0-1,1V185a1,1,0,0,0,1,1h.48a.48.48,0,0,1,.48.48v1a.49.49,0,0,1-.48.48h-.48a2.88,2.88,0,0,1-2.88-2.88v-1.92a2.88,2.88,0,0,1,2.88-2.88h.48a.49.49,0,0,1,.48.48Zm2.65,6.24h-.73a.48.48,0,0,1-.48-.48v-1a.47.47,0,0,1,.48-.48h.73c.36,0,.63-.21.63-.4a.32.32,0,0,0-.13-.23l-1.31-1.12a2.23,2.23,0,0,1-.8-1.69,2.44,2.44,0,0,1,2.54-2.32h.73a.48.48,0,0,1,.48.48v1a.47.47,0,0,1-.48.48h-.73c-.36,0-.63.21-.63.4a.32.32,0,0,0,.13.23l1.31,1.12a2.23,2.23,0,0,1,.8,1.69,2.44,2.44,0,0,1-2.54,2.32Zm5-7.2v1.25a6.52,6.52,0,0,0,1,3.41,6.52,6.52,0,0,0,1-3.41v-1.25a.48.48,0,0,1,.48-.48h1a.49.49,0,0,1,.48.48v1.25a8.21,8.21,0,0,1-2.18,5.64.95.95,0,0,1-1.4,0,8.21,8.21,0,0,1-2.18-5.64v-1.25a.49.49,0,0,1,.48-.48h1A.48.48,0,0,1,188.25,180.68Zm7.25-9.53-5.86-5.87a1.45,1.45,0,0,0-1-.42h-.37v7.67h7.67v-.37A1.44,1.44,0,0,0,195.5,171.15Z" transform="translate(-28.2 -101.27)"/><polyline class="cls-19" points="154.22 54.72 154.22 12.75 281.24 12.75 339.25 88.01"/><polygon class="cls-20" points="335.62 89.42 342.53 92.27 341.54 84.86 335.62 89.42"/><line class="cls-11" x1="223.64" y1="154.68" x2="223.64" y2="175.08"/></svg>