<svg id="Layer_1" data-name="Layer 1" xmlns="http://www.w3.org/2000/svg" viewBox="0 0 701.87 94.18"><defs><style>.cls-1{fill:#f1f2f2;stroke:#666766;}.cls-1,.cls-12,.cls-13,.cls-16,.cls-18,.cls-6{stroke-miterlimit:10;}.cls-1,.cls-12,.cls-13,.cls-16,.cls-18{stroke-width:0.5px;}.cls-14,.cls-15,.cls-2{font-size:10.76px;}.cls-2,.cls-7{fill:#444545;}.cls-10,.cls-14,.cls-15,.cls-2{font-family:Helvetica-Bold, Helvetica;font-weight:700;}.cls-3{fill:#f28e28;}.cls-4{fill:#4e7aa7;}.cls-5{fill:#bab0ac;}.cls-12,.cls-13,.cls-16,.cls-18,.cls-6{fill:none;}.cls-12,.cls-18,.cls-6{stroke:#444545;}.cls-6{stroke-width:0.75px;}.cls-8{opacity:0.5;}.cls-9{fill:#76b7b2;}.cls-10{font-size:9.68px;letter-spacing:0.03em;}.cls-10,.cls-14,.cls-15{fill:#121212;}.cls-11{font-family:Helvetica;font-weight:400;}.cls-13{stroke:#4e7aa7;}.cls-14{letter-spacing:0.03em;}.cls-15{letter-spacing:0.03em;}.cls-16{stroke:#454545;}.cls-17{fill:#454545;}.cls-18{stroke-dasharray:1 1;}</style></defs><title>functions</title><rect class="cls-1" x="197.88" y="40.36" width="62.02" height="45.57"/><line class="cls-1" x1="208.77" y1="40.29" x2="208.77" y2="86.15"/><line class="cls-1" x1="221.16" y1="40.29" x2="221.16" y2="86.15"/><line class="cls-1" x1="232.5" y1="40.29" x2="232.5" y2="86.15"/><line class="cls-1" x1="245.73" y1="40.29" x2="245.73" y2="86.15"/><line class="cls-1" x1="197.61" y1="51.63" x2="259.73" y2="51.63"/><line class="cls-1" x1="197.61" y1="59.9" x2="259.73" y2="59.9"/><line class="cls-1" x1="197.61" y1="68.74" x2="259.73" y2="68.74"/><line class="cls-1" x1="197.61" y1="77.67" x2="259.73" y2="77.67"/><text class="cls-2" transform="translate(214.24 15.93)">Clean<tspan x="-4.78" y="12.91">Dataset</tspan></text><text class="cls-2" transform="translate(419.39 10.2)">Fit<tspan x="-8.96" y="12.91">Model</tspan></text><text class="cls-2" transform="translate(648.41 9.25)">Check<tspan x="-9.26" y="12.91">Residuals</tspan></text><text class="cls-2" transform="translate(19.4 18.29)">Raw<tspan x="-0.6" y="12.91">Data</tspan></text><polygon class="cls-3" points="4.43 82.51 35.11 94.18 61.93 67.36 24.75 52.77 0.66 80.82 4.43 82.51"/><polygon class="cls-4" points="4.43 76.43 35.11 88.1 61.93 61.27 24.75 46.69 0.66 74.73 4.43 76.43"/><polygon class="cls-5" points="3.77 68.81 34.45 80.48 61.27 53.66 24.09 39.07 0 67.12 3.77 68.81"/><line class="cls-6" x1="158.87" y1="60.47" x2="180.28" y2="60.47"/><polygon class="cls-7" points="179.19 64.21 185.67 60.47 179.19 56.73 179.19 64.21"/><g class="cls-8"><path class="cls-9" d="M82.39,65.32a6.5,6.5,0,0,0,6.5,6.51H151.6a6.51,6.51,0,1,0,0-13H88.89a6.5,6.5,0,0,0-6.5,6.5Z" transform="translate(-7.77 -4.74)"/></g><g class="cls-8"><path class="cls-9" d="M490.7,64a6.51,6.51,0,0,0,6.51,6.51h91.41a6.51,6.51,0,0,0,0-13H497.21A6.5,6.5,0,0,0,490.7,64Z" transform="translate(-7.77 -4.74)"/></g><text class="cls-10" transform="translate(488.56 62.46)">simulateResiduals<tspan class="cls-11" x="89.94" y="0">()</tspan></text><polyline class="cls-12" points="389.9 30.41 389.9 91.27 459.69 91.27"/><polygon class="cls-7" points="387.4 31.14 389.9 26.82 392.39 31.14 387.4 31.14"/><polygon class="cls-7" points="458.96 93.77 463.28 91.27 458.96 88.78 458.96 93.77"/><polyline class="cls-12" points="628.49 29.02 628.49 90.44 698.28 90.44"/><polygon class="cls-7" points="625.99 29.75 628.49 25.44 630.98 29.75 625.99 29.75"/><polygon class="cls-7" points="697.55 92.93 701.87 90.44 697.55 87.94 697.55 92.93"/><circle class="cls-7" cx="425.59" cy="46.93" r="1.47"/><circle class="cls-7" cx="443.22" cy="50.9" r="1.47"/><circle class="cls-7" cx="435.58" cy="59.34" r="1.47"/><circle class="cls-7" cx="435.39" cy="43.32" r="1.47"/><circle class="cls-7" cx="422.8" cy="66.53" r="1.47"/><circle class="cls-7" cx="413.62" cy="68.6" r="1.47"/><circle class="cls-7" cx="426.74" cy="58.96" r="1.47"/><circle class="cls-7" cx="431.47" cy="37.36" r="1.47"/><circle class="cls-7" cx="441.72" cy="40.25" r="1.47"/><circle class="cls-7" cx="448.83" cy="43.95" r="1.47"/><circle class="cls-7" cx="638.62" cy="51.32" r="1.47"/><circle class="cls-7" cx="648.12" cy="43.35" r="1.47"/><circle class="cls-7" cx="654.88" cy="52.45" r="1.47"/><circle class="cls-7" cx="672.09" cy="43.42" r="1.47"/><circle class="cls-7" cx="659.54" cy="75.79" r="1.47"/><circle class="cls-7" cx="669.04" cy="67.83" r="1.47"/><circle class="cls-7" cx="675.8" cy="76.93" r="1.47"/><circle class="cls-7" cx="690.5" cy="65.8" r="1.47"/><circle class="cls-7" cx="635.44" cy="72.66" r="1.47"/><circle class="cls-7" cx="644.94" cy="64.69" r="1.47"/><circle class="cls-7" cx="651.7" cy="73.79" r="1.47"/><circle class="cls-7" cx="666.4" cy="62.66" r="1.47"/><circle class="cls-7" cx="656.83" cy="68.23" r="1.47"/><circle class="cls-7" cx="667.25" cy="51.4" r="1.47"/><circle class="cls-7" cx="675.23" cy="62.95" r="1.47"/><circle class="cls-7" cx="689.93" cy="51.82" r="1.47"/><circle class="cls-7" cx="400.14" cy="66.95" r="1.47"/><circle class="cls-7" cx="403.48" cy="77.44" r="1.47"/><circle class="cls-7" cx="407.84" cy="65.4" r="1.47"/><circle class="cls-7" cx="441.69" cy="34.1" r="1.47"/><circle class="cls-7" cx="413.89" cy="60.58" r="1.47"/><circle class="cls-7" cx="407.53" cy="57.53" r="1.47"/><circle class="cls-7" cx="420.37" cy="55.23" r="1.47"/><line class="cls-13" x1="396.36" y1="77.88" x2="451.91" y2="37.29"/><text class="cls-14" transform="translate(98.14 63.83)">filter<tspan class="cls-11" x="25.24" y="0">()</tspan></text><line class="cls-6" x1="351.26" y1="60.47" x2="372.67" y2="60.47"/><polygon class="cls-7" points="371.57 64.21 378.05 60.47 371.57 56.73 371.57 64.21"/><line class="cls-6" x1="592.6" y1="60.47" x2="614.01" y2="60.47"/><polygon class="cls-7" points="612.91 64.21 619.39 60.47 612.91 56.73 612.91 64.21"/><g class="cls-8"><path class="cls-9" d="M274.77,65.32a6.5,6.5,0,0,0,6.51,6.51H344a6.51,6.51,0,0,0,0-13H281.28a6.5,6.5,0,0,0-6.51,6.5Z" transform="translate(-7.77 -4.74)"/></g><text class="cls-15" transform="translate(290.04 63.83)">lmer<tspan class="cls-11" x="24.01" y="0">()</tspan></text><path class="cls-16" d="M133.72,54.46C129.46,38.28,96.44,25.7,56.27,25.7" transform="translate(-7.77 -4.74)"/><polygon class="cls-17" points="128.2 48.63 126.41 53.28 123.28 49.4 128.2 48.63"/><path class="cls-16" d="M323.74,52.84c-2.9-17.5-26.79-31.13-55.9-31.13" transform="translate(-7.77 -4.74)"/><polygon class="cls-17" points="318.31 47.13 316.25 51.67 313.35 47.62 318.31 47.13"/><path class="cls-16" d="M588,52.56C582.21,31.49,525.34,15,455.93,15" transform="translate(-7.77 -4.74)"/><polygon class="cls-17" points="582.5 46.72 580.72 51.37 577.57 47.5 582.5 46.72"/><line class="cls-12" x1="628.51" y1="59.94" x2="629.01" y2="59.94"/><line class="cls-18" x1="630.01" y1="59.94" x2="695.34" y2="59.94"/><line class="cls-12" x1="695.84" y1="59.94" x2="696.34" y2="59.94"/><circle class="cls-7" cx="662.25" cy="45.94" r="1.47"/></svg>