<svg id="Layer_1" data-name="Layer 1" xmlns="http://www.w3.org/2000/svg" viewBox="0 0 485.06 285.31"><defs><style>.cls-1,.cls-10,.cls-13,.cls-14,.cls-2{fill:none;}.cls-1{stroke:#f28e28;opacity:0.7;}.cls-1,.cls-10,.cls-13,.cls-14,.cls-15,.cls-18,.cls-2,.cls-20{stroke-miterlimit:10;}.cls-2{stroke:#4e7aa7;opacity:0.6;}.cls-3{opacity:0.92;}.cls-4{fill:#e15859;}.cls-21,.cls-5{fill:#59a14e;}.cls-6{fill:#76b7b2;}.cls-7{font-size:8px;}.cls-11,.cls-16,.cls-22,.cls-23,.cls-30,.cls-7{fill:#333;}.cls-25,.cls-26,.cls-7{font-family:ProximaNova-Medium, Proxima Nova;font-weight:500;}.cls-24,.cls-7{letter-spacing:0.03em;}.cls-16,.cls-19,.cls-22,.cls-23,.cls-28,.cls-29,.cls-30,.cls-8{font-family:ProximaNova-Semibold, Proxima Nova;font-weight:600;}.cls-18,.cls-9{fill:#4e7aa7;}.cls-10,.cls-15,.cls-18,.cls-20{stroke:#333;}.cls-12,.cls-20{fill:#f28e28;}.cls-12,.cls-20,.cls-21{opacity:0.8;}.cls-13{stroke:#9c755f;}.cls-14{stroke:#b07aa1;}.cls-15,.cls-19{fill:#fff;}.cls-16{font-size:10.5px;letter-spacing:0.03em;}.cls-17{letter-spacing:0.03em;}.cls-18,.cls-20{stroke-width:0.75px;}.cls-19,.cls-25,.cls-26{font-size:11px;}.cls-19,.cls-25,.cls-27{letter-spacing:0.03em;}.cls-22,.cls-23{font-size:10px;}.cls-22{letter-spacing:0.03em;}.cls-23{letter-spacing:0.01em;}.cls-25,.cls-26{fill:#231f20;}.cls-26{letter-spacing:0.02em;}.cls-28{fill:#9c755f;}.cls-29{fill:#b07aa1;}.cls-30{font-size:17px;letter-spacing:0.03em;}</style></defs><title>git-file-changing</title><rect class="cls-1" x="270.08" y="0.5" width="167.38" height="90.88" rx="12"/><rect class="cls-2" x="75.59" y="193.92" width="408.97" height="90.88" rx="12"/><g class="cls-3"><path class="cls-4" d="M23.62,211.54a6,6,0,0,0,6.05,6.05H88a6,6,0,0,0,0-12.1H29.67a6,6,0,0,0-6.05,6Z" transform="translate(-23.24 -0.86)"/></g><g class="cls-3"><path class="cls-5" d="M23.62,242a6,6,0,0,0,6.05,6H88a6.05,6.05,0,1,0,0-12.1H29.67A6,6,0,0,0,23.62,242Z" transform="translate(-23.24 -0.86)"/></g><g class="cls-3"><path class="cls-6" d="M23.62,269.71a6,6,0,0,0,6.05,6.05H88a6,6,0,1,0,0-12.1H29.67a6,6,0,0,0-6.05,6Z" transform="translate(-23.24 -0.86)"/></g><text class="cls-7" transform="translate(108.26 162.12)">git <tspan class="cls-8" x="11.95" y="0">commit</tspan></text><text class="cls-7" transform="translate(170.73 162.12)">git <tspan class="cls-8" x="11.95" y="0">commit</tspan></text><text class="cls-7" transform="translate(300.92 126.85)">git <tspan class="cls-8" x="11.95" y="0">commit</tspan></text><text class="cls-7" transform="translate(367 126.85)">git <tspan class="cls-8" x="11.95" y="0">commit</tspan></text><circle class="cls-9" cx="95.74" cy="176.66" r="15.74"/><line class="cls-10" x1="111.48" y1="176.66" x2="137.38" y2="176.66"/><polygon class="cls-11" points="135.92 181.64 144.56 176.66 135.92 171.67 135.92 181.64"/><line class="cls-10" x1="111.48" y1="209.12" x2="137.38" y2="209.12"/><polygon class="cls-11" points="135.92 214.1 144.56 209.12 135.92 204.13 135.92 214.1"/><line class="cls-10" x1="111.48" y1="272.03" x2="137.38" y2="272.03"/><polygon class="cls-11" points="135.92 277.01 144.56 272.03 135.92 267.04 135.92 277.01"/><line class="cls-10" x1="111.48" y1="240.18" x2="144.55" y2="240.18"/><line class="cls-10" x1="177.83" y1="240.18" x2="210.9" y2="240.18"/><line class="cls-10" x1="242.71" y1="240.18" x2="456.05" y2="240.18"/><line class="cls-10" x1="242.71" y1="270.48" x2="448.88" y2="270.48"/><polygon class="cls-11" points="447.42 275.47 456.05 270.48 447.42 265.5 447.42 275.47"/><line class="cls-10" x1="242.71" y1="209.45" x2="456.05" y2="209.45"/><line class="cls-10" x1="177.83" y1="270.7" x2="210.9" y2="270.7"/><circle class="cls-9" cx="159.93" cy="176.66" r="15.74"/><line class="cls-10" x1="175.67" y1="176.66" x2="201.56" y2="176.66"/><polygon class="cls-11" points="200.1 181.64 208.74 176.66 200.1 171.67 200.1 181.64"/><circle class="cls-9" cx="223.77" cy="176.66" r="15.74"/><circle class="cls-12" cx="287.95" cy="111.94" r="15.74"/><line class="cls-10" x1="303.69" y1="110.46" x2="329.58" y2="110.46"/><polygon class="cls-11" points="328.13 115.45 336.76 110.46 328.13 105.47 328.13 115.45"/><line class="cls-10" x1="303.69" y1="76.81" x2="329.58" y2="76.81"/><polygon class="cls-11" points="328.13 81.79 336.76 76.81 328.13 71.82 328.13 81.79"/><line class="cls-10" x1="303.69" y1="46.95" x2="336.76" y2="46.95"/><line class="cls-10" x1="303.69" y1="17.09" x2="336.76" y2="17.09"/><circle class="cls-9" cx="467.96" cy="176.66" r="15.74"/><circle class="cls-12" cx="352.76" cy="111.94" r="15.74"/><line class="cls-10" x1="369.76" y1="110.46" x2="395.65" y2="110.46"/><polygon class="cls-11" points="394.19 115.45 402.83 110.46 394.19 105.47 394.19 115.45"/><circle class="cls-12" cx="418.83" cy="111.94" r="15.74"/><line class="cls-13" x1="227.55" y1="161.66" x2="273.38" y2="115.83"/><line class="cls-14" x1="428.45" y1="124.33" x2="458.14" y2="164.36"/><line class="cls-15" x1="239.51" y1="176.66" x2="452.22" y2="176.66"/><path class="cls-6" d="M128.05,264.67V265h-6.11v-6.1h.29a1.11,1.11,0,0,1,.81.34l4.67,4.67A1.15,1.15,0,0,1,128.05,264.67Zm-6.49,1.81a1.14,1.14,0,0,1-1.14-1.14v-6.49h-9.53a1.15,1.15,0,0,0-1.15,1.15v22.11a1.14,1.14,0,0,0,1.15,1.15h16a1.15,1.15,0,0,0,1.15-1.15V266.48Zm-5.94,11.46a.26.26,0,0,1-.37,0h0l-3.09-2.89a.27.27,0,0,1,0-.37h0l3.09-2.9a.28.28,0,0,1,.37,0h0l.93,1a.25.25,0,0,1,0,.36h0l-1.94,1.71,1.94,1.71a.25.25,0,0,1,0,.36h0l-.93,1Zm2.44,2.41-1.31-.38a.25.25,0,0,1-.17-.32l2.92-10.09a.26.26,0,0,1,.32-.17l1.31.38a.26.26,0,0,1,.18.32h0l-2.93,10.08a.26.26,0,0,1-.32.18Zm7.66-5.29L122.63,278a.25.25,0,0,1-.36,0h0l-.94-1a.27.27,0,0,1,0-.37h0l2-1.71-2-1.71a.26.26,0,0,1,0-.36h0l.93-1a.26.26,0,0,1,.36,0h0l3.09,2.9a.25.25,0,0,1,0,.36l0,0Z" transform="translate(-23.24 -0.86)"/><text class="cls-16" transform="translate(12.18 244.45)">data<tspan class="cls-17" x="21.97" y="0">.</tspan><tspan x="24.8" y="0">csv</tspan></text><text class="cls-16" transform="translate(4.39 213.89)">analysis.rmd</text><rect class="cls-18" x="0.38" y="169.06" width="70.4" height="12.1"/><text class="cls-19" transform="translate(3.44 178.94)">Main Branch</text><rect class="cls-20" x="171.52" y="102.3" width="70.4" height="12.1"/><text class="cls-19" transform="translate(181.79 112.19)">Branch X</text><text class="cls-16" transform="translate(8.88 272.49)">function.R</text><path class="cls-21" d="M120.61,234.66v-6.75h-9.92a1.2,1.2,0,0,0-1.2,1.2v23a1.19,1.19,0,0,0,1.2,1.19h16.67a1.19,1.19,0,0,0,1.19-1.19V235.85H121.8A1.19,1.19,0,0,1,120.61,234.66Zm-4.76,7.15a.4.4,0,0,1-.4.4h-.4a.79.79,0,0,0-.79.79v1.59a.79.79,0,0,0,.79.79h.4a.4.4,0,0,1,.4.4v.79a.4.4,0,0,1-.4.4h-.4a2.39,2.39,0,0,1-2.38-2.38V243a2.39,2.39,0,0,1,2.38-2.38h.4a.4.4,0,0,1,.4.4ZM118,247h-.6a.4.4,0,0,1-.4-.4v-.79a.4.4,0,0,1,.4-.4h.6c.3,0,.52-.17.52-.33a.3.3,0,0,0-.1-.19l-1.09-.93a1.83,1.83,0,0,1-.66-1.39,2,2,0,0,1,2.1-1.92h.61a.4.4,0,0,1,.4.4v.79a.4.4,0,0,1-.4.4h-.61c-.29,0-.52.17-.52.33a.27.27,0,0,0,.11.19l1.09.93a1.85,1.85,0,0,1,.66,1.39A2,2,0,0,1,118,247ZM122.2,241v1a5.42,5.42,0,0,0,.79,2.82,5.43,5.43,0,0,0,.8-2.82v-1a.4.4,0,0,1,.39-.4h.8a.4.4,0,0,1,.4.4v1a6.83,6.83,0,0,1-1.8,4.67.82.82,0,0,1-.59.25.79.79,0,0,1-.58-.25,6.83,6.83,0,0,1-1.8-4.67v-1a.4.4,0,0,1,.4-.4h.79A.4.4,0,0,1,122.2,241Zm6-7.89-4.85-4.87a1.23,1.23,0,0,0-.85-.35h-.3v6.36h6.35V234A1.14,1.14,0,0,0,128.2,233.13Z" transform="translate(-23.24 -0.86)"/><path class="cls-4" d="M119.54,205v-6.57h-9.67a1.15,1.15,0,0,0-1.16,1.16V222a1.16,1.16,0,0,0,1.16,1.17h16.25a1.16,1.16,0,0,0,1.16-1.17V206.12H120.7A1.16,1.16,0,0,1,119.54,205Zm3.09,11.42a.59.59,0,0,1-.58.58h-8.12a.59.59,0,0,1-.58-.58V216a.58.58,0,0,1,.58-.58h8.12a.58.58,0,0,1,.58.58Zm0-3.1a.58.58,0,0,1-.58.58h-8.12a.58.58,0,0,1-.58-.58v-.39a.58.58,0,0,1,.58-.58h8.12a.58.58,0,0,1,.58.58Zm0-3.48v.39a.58.58,0,0,1-.58.58h-8.12a.58.58,0,0,1-.58-.58v-.39a.58.58,0,0,1,.58-.58h8.12A.58.58,0,0,1,122.63,209.8Zm4.65-5.52v.3h-6.19v-6.19h.29a1.13,1.13,0,0,1,.82.34l4.74,4.73A1.17,1.17,0,0,1,127.28,204.28Z" transform="translate(-23.24 -0.86)"/><text class="cls-22" transform="translate(86.04 205.9)">V1</text><path class="cls-4" d="M186.05,205v-6.57h-9.67a1.15,1.15,0,0,0-1.16,1.16V222a1.16,1.16,0,0,0,1.16,1.17h16.24a1.16,1.16,0,0,0,1.16-1.17V206.12h-6.57A1.16,1.16,0,0,1,186.05,205Zm3.09,11.42a.59.59,0,0,1-.58.58h-8.12a.59.59,0,0,1-.58-.58V216a.58.58,0,0,1,.58-.58h8.12a.58.58,0,0,1,.58.58Zm0-3.1a.58.58,0,0,1-.58.58h-8.12a.58.58,0,0,1-.58-.58v-.39a.58.58,0,0,1,.58-.58h8.12a.58.58,0,0,1,.58.58Zm0-3.48v.39a.58.58,0,0,1-.58.58h-8.12a.58.58,0,0,1-.58-.58v-.39a.58.58,0,0,1,.58-.58h8.12A.58.58,0,0,1,189.14,209.8Zm4.64-5.52v.3h-6.19v-6.19h.3a1.15,1.15,0,0,1,.82.34l4.74,4.73A1.2,1.2,0,0,1,193.78,204.28Z" transform="translate(-23.24 -0.86)"/><text class="cls-22" transform="translate(152.55 205.9)">V2</text><text class="cls-22" transform="translate(86.78 235.25)">V1</text><path class="cls-21" d="M187,234.66v-6.75h-9.92a1.19,1.19,0,0,0-1.19,1.2v23a1.19,1.19,0,0,0,1.19,1.19h16.67a1.19,1.19,0,0,0,1.19-1.19V235.85h-6.74A1.19,1.19,0,0,1,187,234.66Zm-4.76,7.15a.4.4,0,0,1-.4.4h-.39a.79.79,0,0,0-.8.79v1.59a.79.79,0,0,0,.8.79h.39a.4.4,0,0,1,.4.4v.79a.4.4,0,0,1-.4.4h-.39a2.39,2.39,0,0,1-2.39-2.38V243a2.39,2.39,0,0,1,2.39-2.38h.39a.4.4,0,0,1,.4.4Zm2.2,5.16h-.61a.4.4,0,0,1-.4-.4v-.79a.4.4,0,0,1,.4-.4h.61c.29,0,.51-.17.51-.33a.26.26,0,0,0-.1-.19l-1.09-.93a1.83,1.83,0,0,1-.66-1.39,2,2,0,0,1,2.1-1.92h.61a.4.4,0,0,1,.4.4v.79a.4.4,0,0,1-.4.4h-.61c-.29,0-.51.17-.51.33a.26.26,0,0,0,.1.19l1.09.93a1.85,1.85,0,0,1,.66,1.39,2,2,0,0,1-2.1,1.92Zm4.15-5.95v1a5.34,5.34,0,0,0,.8,2.82,5.42,5.42,0,0,0,.79-2.82v-1a.4.4,0,0,1,.4-.4h.79a.4.4,0,0,1,.4.4v1a6.83,6.83,0,0,1-1.8,4.67.79.79,0,0,1-.58.25.82.82,0,0,1-.59-.25,6.83,6.83,0,0,1-1.8-4.67v-1a.4.4,0,0,1,.4-.4h.8A.4.4,0,0,1,188.58,241Zm6-7.89-4.86-4.87a1.21,1.21,0,0,0-.85-.35h-.3v6.36h6.35V234A1.17,1.17,0,0,0,194.59,233.13Z" transform="translate(-23.24 -0.86)"/><text class="cls-22" transform="translate(153.16 235.25)">V1</text><path class="cls-21" d="M251.35,234.66v-6.75h-9.92a1.19,1.19,0,0,0-1.19,1.2v23a1.19,1.19,0,0,0,1.19,1.19H258.1a1.19,1.19,0,0,0,1.19-1.19V235.85h-6.75A1.19,1.19,0,0,1,251.35,234.66Zm-4.76,7.15a.4.4,0,0,1-.4.4h-.4a.79.79,0,0,0-.79.79v1.59a.79.79,0,0,0,.79.79h.4a.4.4,0,0,1,.4.4v.79a.4.4,0,0,1-.4.4h-.4a2.39,2.39,0,0,1-2.38-2.38V243a2.39,2.39,0,0,1,2.38-2.38h.4a.4.4,0,0,1,.4.4Zm2.2,5.16h-.61a.4.4,0,0,1-.4-.4v-.79a.4.4,0,0,1,.4-.4h.61c.29,0,.51-.17.51-.33a.3.3,0,0,0-.1-.19l-1.09-.93a1.83,1.83,0,0,1-.66-1.39,2,2,0,0,1,2.1-1.92h.61a.4.4,0,0,1,.4.4v.79a.4.4,0,0,1-.4.4h-.61c-.29,0-.51.17-.51.33a.26.26,0,0,0,.1.19l1.09.93a1.85,1.85,0,0,1,.66,1.39,2,2,0,0,1-2.1,1.92Zm4.15-5.95v1a5.42,5.42,0,0,0,.79,2.82,5.34,5.34,0,0,0,.8-2.82v-1a.4.4,0,0,1,.4-.4h.79a.4.4,0,0,1,.4.4v1a6.83,6.83,0,0,1-1.8,4.67.81.81,0,0,1-1.17,0,6.83,6.83,0,0,1-1.8-4.67v-1a.4.4,0,0,1,.4-.4h.79A.4.4,0,0,1,252.94,241Zm6-7.89-4.86-4.87a1.23,1.23,0,0,0-.85-.35h-.3v6.36h6.35V234A1.17,1.17,0,0,0,259,233.13Z" transform="translate(-23.24 -0.86)"/><text class="cls-22" transform="translate(217.52 235.25)">V1</text><path class="cls-21" d="M494,234.66v-6.75H484a1.19,1.19,0,0,0-1.19,1.2v23a1.19,1.19,0,0,0,1.19,1.19H500.7a1.19,1.19,0,0,0,1.19-1.19V235.85h-6.74A1.19,1.19,0,0,1,494,234.66Zm-4.76,7.15a.4.4,0,0,1-.4.4h-.39a.79.79,0,0,0-.8.79v1.59a.79.79,0,0,0,.8.79h.39a.4.4,0,0,1,.4.4v.79a.4.4,0,0,1-.4.4h-.39a2.39,2.39,0,0,1-2.39-2.38V243a2.39,2.39,0,0,1,2.39-2.38h.39a.4.4,0,0,1,.4.4Zm2.2,5.16h-.61a.4.4,0,0,1-.4-.4v-.79a.4.4,0,0,1,.4-.4h.61c.29,0,.51-.17.51-.33a.26.26,0,0,0-.1-.19l-1.09-.93a1.83,1.83,0,0,1-.66-1.39,2,2,0,0,1,2.11-1.92h.6a.4.4,0,0,1,.4.4v.79a.4.4,0,0,1-.4.4h-.61c-.29,0-.51.17-.51.33a.26.26,0,0,0,.1.19l1.09.93a1.85,1.85,0,0,1,.66,1.39,2,2,0,0,1-2.1,1.92Zm4.15-5.95v1a5.43,5.43,0,0,0,.8,2.82,5.42,5.42,0,0,0,.79-2.82v-1a.4.4,0,0,1,.4-.4h.79a.4.4,0,0,1,.4.4v1a6.83,6.83,0,0,1-1.8,4.67.79.79,0,0,1-.58.25.82.82,0,0,1-.59-.25,6.83,6.83,0,0,1-1.8-4.67v-1a.4.4,0,0,1,.4-.4h.8A.4.4,0,0,1,495.54,241Zm6-7.89-4.86-4.87a1.21,1.21,0,0,0-.84-.35h-.31v6.36h6.35V234A1.17,1.17,0,0,0,501.55,233.13Z" transform="translate(-23.24 -0.86)"/><text class="cls-22" transform="translate(460.12 235.25)">V1</text><text class="cls-22" transform="translate(86.96 266.81)">V1</text><path class="cls-6" d="M194.4,264.67V265h-6.1v-6.1h.29a1.14,1.14,0,0,1,.81.34l4.67,4.67A1.14,1.14,0,0,1,194.4,264.67Zm-6.48,1.81a1.14,1.14,0,0,1-1.14-1.14v-6.49h-9.54A1.15,1.15,0,0,0,176.1,260v22.11a1.14,1.14,0,0,0,1.14,1.15h16a1.14,1.14,0,0,0,1.14-1.15V266.48ZM182,277.94a.25.25,0,0,1-.36,0h0l-3.09-2.89a.26.26,0,0,1,0-.37h0l3.09-2.9a.26.26,0,0,1,.36,0h0l.94,1a.25.25,0,0,1,0,.36h0l-1.95,1.71,1.95,1.71a.26.26,0,0,1,0,.36h0l-.94,1Zm2.45,2.41-1.31-.38a.26.26,0,0,1-.18-.32l2.93-10.09a.26.26,0,0,1,.32-.17l1.31.38a.25.25,0,0,1,.17.32h0l-2.92,10.08a.26.26,0,0,1-.32.18Zm7.66-5.29L189,278a.25.25,0,0,1-.36,0h0l-.94-1a.27.27,0,0,1,0-.37h0l1.94-1.71-1.94-1.71a.25.25,0,0,1,0-.36h0l.94-1a.26.26,0,0,1,.36,0h0l3.09,2.9a.25.25,0,0,1,0,.36v0Z" transform="translate(-23.24 -0.86)"/><text class="cls-22" transform="translate(153.32 266.81)">V2</text><path class="cls-6" d="M258.75,264.67V265h-6.1v-6.1h.29a1.11,1.11,0,0,1,.81.34l4.67,4.67A1.14,1.14,0,0,1,258.75,264.67Zm-6.48,1.81a1.14,1.14,0,0,1-1.14-1.14v-6.49H241.6a1.15,1.15,0,0,0-1.15,1.15v22.11a1.14,1.14,0,0,0,1.15,1.15h16a1.14,1.14,0,0,0,1.14-1.15V266.48Zm-6,11.46a.25.25,0,0,1-.36,0h0l-3.09-2.89a.26.26,0,0,1,0-.37h0l3.09-2.9a.26.26,0,0,1,.36,0h0l.94,1a.26.26,0,0,1,0,.36h0l-1.94,1.71,1.94,1.71a.25.25,0,0,1,0,.36h0l-.94,1Zm2.45,2.41-1.31-.38a.26.26,0,0,1-.18-.32l2.93-10.09a.26.26,0,0,1,.32-.17l1.31.38a.26.26,0,0,1,.18.32h0l-2.93,10.08a.26.26,0,0,1-.32.18Zm7.66-5.29L253.34,278a.25.25,0,0,1-.36,0h0l-.94-1a.27.27,0,0,1,0-.37h0l1.94-1.71-1.94-1.71a.25.25,0,0,1,0-.36h0l.94-1a.26.26,0,0,1,.36,0h0l3.09,2.9a.25.25,0,0,1,0,.36v0Z" transform="translate(-23.24 -0.86)"/><text class="cls-22" transform="translate(217.67 266.81)">V2</text><path class="cls-6" d="M501.74,264.67V265h-6.1v-6.1h.29a1.14,1.14,0,0,1,.81.34l4.67,4.67A1.14,1.14,0,0,1,501.74,264.67Zm-6.48,1.81a1.14,1.14,0,0,1-1.14-1.14v-6.49h-9.54a1.15,1.15,0,0,0-1.14,1.15v22.11a1.14,1.14,0,0,0,1.14,1.15h16a1.14,1.14,0,0,0,1.14-1.15V266.48Zm-5.95,11.46a.25.25,0,0,1-.36,0h0l-3.09-2.89a.27.27,0,0,1,0-.37h0l3.09-2.9a.26.26,0,0,1,.36,0h0l.93,1a.25.25,0,0,1,0,.36h0l-2,1.71,2,1.71a.26.26,0,0,1,0,.36h0l-.93,1Zm2.45,2.41-1.31-.38a.26.26,0,0,1-.18-.32l2.93-10.09a.26.26,0,0,1,.32-.17l1.31.38a.26.26,0,0,1,.17.32h0l-2.92,10.08a.26.26,0,0,1-.32.18Zm7.66-5.29L496.33,278a.26.26,0,0,1-.37,0h0l-.93-1a.27.27,0,0,1,0-.37h0l1.94-1.71-1.94-1.71a.25.25,0,0,1,0-.36h0l.93-1a.28.28,0,0,1,.37,0h0l3.09,2.9a.25.25,0,0,1,0,.36v0Z" transform="translate(-23.24 -0.86)"/><text class="cls-22" transform="translate(460.66 266.81)">V4</text><path class="cls-6" d="M321.18,70.92v.29h-6.1v-6.1h.29a1.14,1.14,0,0,1,.81.33l4.67,4.67A1.14,1.14,0,0,1,321.18,70.92Zm-6.48,1.81a1.14,1.14,0,0,1-1.14-1.14V65.11H304a1.14,1.14,0,0,0-1.15,1.14V88.37A1.14,1.14,0,0,0,304,89.51h16a1.14,1.14,0,0,0,1.14-1.14V72.73ZM308.75,84.2a.26.26,0,0,1-.36,0h0l-3.09-2.9a.27.27,0,0,1,0-.37h0l3.09-2.9a.25.25,0,0,1,.36,0h0l.94,1a.28.28,0,0,1,0,.37h0l-1.94,1.71,1.94,1.71a.25.25,0,0,1,0,.36h0l-.94,1Zm2.45,2.4-1.31-.38a.25.25,0,0,1-.17-.32l2.92-10.08a.26.26,0,0,1,.32-.18l1.31.38a.26.26,0,0,1,.18.32h0l-2.93,10.09a.26.26,0,0,1-.32.17Zm7.66-5.29-3.09,2.9a.26.26,0,0,1-.36,0h0l-.94-1a.25.25,0,0,1,0-.36h0l1.95-1.71-1.95-1.71a.26.26,0,0,1,0-.36h0l.94-1a.25.25,0,0,1,.36,0h0l3.09,2.9a.26.26,0,0,1,0,.37Z" transform="translate(-23.24 -0.86)"/><path class="cls-21" d="M313.75,40.92V34.17h-9.92a1.19,1.19,0,0,0-1.2,1.19v23a1.2,1.2,0,0,0,1.2,1.2H320.5a1.19,1.19,0,0,0,1.19-1.2V42.11h-6.75A1.2,1.2,0,0,1,313.75,40.92ZM309,48.06a.4.4,0,0,1-.4.4h-.4a.79.79,0,0,0-.79.79v1.59a.79.79,0,0,0,.79.8h.4a.39.39,0,0,1,.4.39v.8a.39.39,0,0,1-.4.39h-.4a2.38,2.38,0,0,1-2.38-2.38V49.25a2.39,2.39,0,0,1,2.38-2.38h.4a.4.4,0,0,1,.4.4Zm2.19,5.16h-.61a.39.39,0,0,1-.39-.39V52a.39.39,0,0,1,.39-.39h.61c.3,0,.52-.18.52-.33a.26.26,0,0,0-.1-.19l-1.09-.94a1.81,1.81,0,0,1-.66-1.39,2,2,0,0,1,2.1-1.92h.61a.4.4,0,0,1,.4.4v.79a.4.4,0,0,1-.4.4H312c-.29,0-.52.17-.52.33a.27.27,0,0,0,.11.19l1.09.93a1.85,1.85,0,0,1,.66,1.4,2,2,0,0,1-2.11,1.91Zm4.16-5.95v1a5.4,5.4,0,0,0,.79,2.82,5.41,5.41,0,0,0,.8-2.82v-1a.39.39,0,0,1,.39-.4h.8a.4.4,0,0,1,.4.4v1A6.8,6.8,0,0,1,316.71,53a.8.8,0,0,1-1.16,0,6.83,6.83,0,0,1-1.8-4.67v-1a.4.4,0,0,1,.4-.4h.79A.4.4,0,0,1,315.34,47.27Zm6-7.89-4.85-4.87a1.22,1.22,0,0,0-.85-.34h-.3v6.35h6.35v-.3A1.15,1.15,0,0,0,321.34,39.38Z" transform="translate(-23.24 -0.86)"/><path class="cls-4" d="M312.68,11.22V4.64H303a1.15,1.15,0,0,0-1.16,1.16V28.24A1.15,1.15,0,0,0,303,29.4h16.24a1.16,1.16,0,0,0,1.17-1.16V12.38h-6.58A1.17,1.17,0,0,1,312.68,11.22Zm3.09,11.41a.58.58,0,0,1-.58.58h-8.12a.58.58,0,0,1-.58-.58v-.39a.58.58,0,0,1,.58-.58h8.12a.58.58,0,0,1,.58.58Zm0-3.1a.58.58,0,0,1-.58.58h-8.12a.58.58,0,0,1-.58-.58v-.38a.58.58,0,0,1,.58-.58h8.12a.58.58,0,0,1,.58.58Zm0-3.48v.39a.58.58,0,0,1-.58.58h-8.12a.58.58,0,0,1-.58-.58v-.39a.58.58,0,0,1,.58-.58h8.12A.58.58,0,0,1,315.77,16.05Zm4.65-5.52v.3h-6.19V4.64h.29a1.13,1.13,0,0,1,.82.34l4.74,4.74A1.17,1.17,0,0,1,320.42,10.53Z" transform="translate(-23.24 -0.86)"/><text class="cls-23" transform="translate(279.18 12.15)">V<tspan class="cls-24" x="6.83" y="0">3</tspan></text><text class="cls-22" transform="translate(279.92 41.5)">V1</text><path class="cls-21" d="M378.63,40.92V34.17H368.7a1.19,1.19,0,0,0-1.19,1.19v23a1.19,1.19,0,0,0,1.19,1.2h16.68a1.19,1.19,0,0,0,1.19-1.2V42.11h-6.75A1.19,1.19,0,0,1,378.63,40.92Zm-4.77,7.14a.4.4,0,0,1-.39.4h-.4a.79.79,0,0,0-.8.79v1.59a.8.8,0,0,0,.8.8h.4a.39.39,0,0,1,.39.39v.8a.39.39,0,0,1-.39.39h-.4a2.37,2.37,0,0,1-2.38-2.38V49.25a2.38,2.38,0,0,1,2.38-2.38h.4a.4.4,0,0,1,.39.4Zm2.2,5.16h-.61a.39.39,0,0,1-.4-.39V52a.39.39,0,0,1,.4-.39h.61c.29,0,.52-.18.52-.33a.24.24,0,0,0-.11-.19l-1.09-.94a1.81,1.81,0,0,1-.66-1.39,2,2,0,0,1,2.11-1.92h.61a.39.39,0,0,1,.39.4v.79a.39.39,0,0,1-.39.4h-.61c-.3,0-.52.17-.52.33a.27.27,0,0,0,.11.19l1.08.93a1.85,1.85,0,0,1,.66,1.4,2,2,0,0,1-2.1,1.91Zm4.15-5.95v1a5.41,5.41,0,0,0,.8,2.82,5.4,5.4,0,0,0,.79-2.82v-1a.4.4,0,0,1,.4-.4H383a.4.4,0,0,1,.4.4v1a6.83,6.83,0,0,1-1.8,4.67.8.8,0,0,1-1.16,0,6.83,6.83,0,0,1-1.8-4.67v-1a.39.39,0,0,1,.39-.4h.8A.39.39,0,0,1,380.21,47.27Zm6-7.89-4.86-4.87a1.18,1.18,0,0,0-.84-.34h-.31v6.35h6.36v-.3A1.19,1.19,0,0,0,386.22,39.38Z" transform="translate(-23.24 -0.86)"/><path class="cls-4" d="M377.55,11.22V4.64h-9.67a1.16,1.16,0,0,0-1.16,1.16V28.24a1.16,1.16,0,0,0,1.16,1.16h16.25a1.16,1.16,0,0,0,1.16-1.16V12.38h-6.58A1.17,1.17,0,0,1,377.55,11.22Zm3.1,11.41a.58.58,0,0,1-.58.58H372a.59.59,0,0,1-.59-.58v-.39a.59.59,0,0,1,.59-.58h8.12a.58.58,0,0,1,.58.58Zm0-3.1a.58.58,0,0,1-.58.58H372a.59.59,0,0,1-.59-.58v-.38a.59.59,0,0,1,.59-.58h8.12a.58.58,0,0,1,.58.58Zm0-3.48v.39a.58.58,0,0,1-.58.58H372a.59.59,0,0,1-.59-.58v-.39a.59.59,0,0,1,.59-.58h8.12A.58.58,0,0,1,380.65,16.05Zm4.64-5.52v.3H379.1V4.64h.3a1.15,1.15,0,0,1,.82.34L385,9.72A1.13,1.13,0,0,1,385.29,10.53Z" transform="translate(-23.24 -0.86)"/><text class="cls-23" transform="translate(344.06 12.15)">V<tspan class="cls-24" x="6.83" y="0">3</tspan></text><text class="cls-22" transform="translate(344.79 41.5)">V1</text><text class="cls-22" transform="translate(280.1 73.06)">V2</text><path class="cls-6" d="M385.86,70.92v.29h-6.1v-6.1h.29a1.14,1.14,0,0,1,.8.33l4.67,4.67A1.11,1.11,0,0,1,385.86,70.92Zm-6.48,1.81a1.15,1.15,0,0,1-1.15-1.14V65.11H368.7a1.14,1.14,0,0,0-1.14,1.14V88.37a1.14,1.14,0,0,0,1.14,1.14h16a1.14,1.14,0,0,0,1.15-1.14V72.73ZM373.43,84.2a.28.28,0,0,1-.37,0h0L370,81.31a.27.27,0,0,1,0-.37h0l3.09-2.9a.27.27,0,0,1,.37,0h0l.93,1a.27.27,0,0,1,0,.37h0l-1.94,1.71,1.94,1.71a.25.25,0,0,1,0,.36h0l-.93,1Zm2.44,2.4-1.31-.38a.26.26,0,0,1-.17-.32l2.93-10.08a.26.26,0,0,1,.32-.18l1.3.38a.26.26,0,0,1,.18.32h0l-2.93,10.09a.26.26,0,0,1-.32.17Zm7.67-5.29-3.1,2.9a.26.26,0,0,1-.36,0h0l-.93-1a.25.25,0,0,1,0-.36h0l1.94-1.71-1.94-1.71a.25.25,0,0,1,0-.36h0l.93-1a.25.25,0,0,1,.36,0h0l3.09,2.9a.27.27,0,0,1,0,.37Z" transform="translate(-23.24 -0.86)"/><text class="cls-23" transform="translate(344.77 73.06)">V<tspan class="cls-24" x="6.83" y="0">3</tspan></text><text class="cls-25" transform="translate(119.75 203.44)">Δ1</text><line class="cls-10" x1="176.59" y1="209.12" x2="202.49" y2="209.12"/><polygon class="cls-11" points="201.03 214.1 209.66 209.12 201.03 204.13 201.03 214.1"/><path class="cls-4" d="M251.15,205v-6.57h-9.67a1.15,1.15,0,0,0-1.16,1.16V222a1.16,1.16,0,0,0,1.16,1.17h16.25a1.16,1.16,0,0,0,1.16-1.17V206.12h-6.58A1.17,1.17,0,0,1,251.15,205Zm3.1,11.42a.59.59,0,0,1-.58.58h-8.12a.6.6,0,0,1-.59-.58V216a.59.59,0,0,1,.59-.58h8.12a.58.58,0,0,1,.58.58Zm0-3.1a.58.58,0,0,1-.58.58h-8.12a.59.59,0,0,1-.59-.58v-.39a.59.59,0,0,1,.59-.58h8.12a.58.58,0,0,1,.58.58Zm0-3.48v.39a.58.58,0,0,1-.58.58h-8.12a.59.59,0,0,1-.59-.58v-.39a.59.59,0,0,1,.59-.58h8.12A.58.58,0,0,1,254.25,209.8Zm4.64-5.52v.3H252.7v-6.19h.3a1.15,1.15,0,0,1,.82.34l4.73,4.73A1.17,1.17,0,0,1,258.89,204.28Z" transform="translate(-23.24 -0.86)"/><text class="cls-23" transform="translate(217.66 205.9)">V<tspan class="cls-24" x="6.83" y="0">3</tspan></text><path class="cls-4" d="M493.88,205v-6.57h-9.67a1.15,1.15,0,0,0-1.16,1.16V222a1.16,1.16,0,0,0,1.16,1.17h16.25a1.16,1.16,0,0,0,1.16-1.17V206.12H495A1.16,1.16,0,0,1,493.88,205ZM497,216.38a.59.59,0,0,1-.58.58h-8.12a.59.59,0,0,1-.58-.58V216a.58.58,0,0,1,.58-.58h8.12a.58.58,0,0,1,.58.58Zm0-3.1a.58.58,0,0,1-.58.58h-8.12a.58.58,0,0,1-.58-.58v-.39a.58.58,0,0,1,.58-.58h8.12a.58.58,0,0,1,.58.58Zm0-3.48v.39a.58.58,0,0,1-.58.58h-8.12a.58.58,0,0,1-.58-.58v-.39a.58.58,0,0,1,.58-.58h8.12A.58.58,0,0,1,497,209.8Zm4.65-5.52v.3h-6.19v-6.19h.29a1.13,1.13,0,0,1,.82.34l4.74,4.73A1.17,1.17,0,0,1,501.62,204.28Z" transform="translate(-23.24 -0.86)"/><text class="cls-23" transform="translate(460.38 205.9)">V<tspan class="cls-24" x="6.83" y="0">3</tspan></text><text class="cls-25" transform="translate(184.86 203.44)">Δ2</text><text class="cls-25" transform="translate(309.52 71.61)">Δ2</text><line class="cls-10" x1="369.59" y1="76.81" x2="395.48" y2="76.81"/><polygon class="cls-11" points="394.02 81.79 402.66 76.81 394.02 71.82 394.02 81.79"/><line class="cls-10" x1="369.59" y1="46.95" x2="402.66" y2="46.95"/><line class="cls-10" x1="369.59" y1="17.09" x2="402.66" y2="17.09"/><path class="cls-21" d="M444.53,40.92V34.17H434.6a1.19,1.19,0,0,0-1.19,1.19v23a1.19,1.19,0,0,0,1.19,1.2h16.68a1.19,1.19,0,0,0,1.19-1.2V42.11h-6.75A1.19,1.19,0,0,1,444.53,40.92Zm-4.77,7.14a.4.4,0,0,1-.39.4H439a.79.79,0,0,0-.8.79v1.59a.8.8,0,0,0,.8.8h.4a.39.39,0,0,1,.39.39v.8a.39.39,0,0,1-.39.39H439a2.37,2.37,0,0,1-2.38-2.38V49.25A2.38,2.38,0,0,1,439,46.87h.4a.4.4,0,0,1,.39.4Zm2.2,5.16h-.61a.39.39,0,0,1-.4-.39V52a.39.39,0,0,1,.4-.39H442c.29,0,.52-.18.52-.33a.24.24,0,0,0-.11-.19l-1.09-.94a1.81,1.81,0,0,1-.66-1.39,2,2,0,0,1,2.11-1.92h.61a.4.4,0,0,1,.39.4v.79a.4.4,0,0,1-.39.4h-.61c-.3,0-.52.17-.52.33a.27.27,0,0,0,.11.19l1.08.93a1.85,1.85,0,0,1,.66,1.4,2,2,0,0,1-2.1,1.91Zm4.15-5.95v1a5.41,5.41,0,0,0,.8,2.82,5.4,5.4,0,0,0,.79-2.82v-1a.4.4,0,0,1,.4-.4h.79a.4.4,0,0,1,.4.4v1a6.83,6.83,0,0,1-1.8,4.67.8.8,0,0,1-1.16,0,6.83,6.83,0,0,1-1.8-4.67v-1a.39.39,0,0,1,.39-.4h.8A.39.39,0,0,1,446.11,47.27Zm6-7.89-4.86-4.87a1.18,1.18,0,0,0-.84-.34h-.31v6.35h6.36v-.3A1.19,1.19,0,0,0,452.12,39.38Z" transform="translate(-23.24 -0.86)"/><path class="cls-4" d="M443.45,11.22V4.64h-9.67a1.16,1.16,0,0,0-1.16,1.16V28.24a1.16,1.16,0,0,0,1.16,1.16H450a1.16,1.16,0,0,0,1.16-1.16V12.38h-6.58A1.17,1.17,0,0,1,443.45,11.22Zm3.1,11.41a.58.58,0,0,1-.58.58h-8.13a.59.59,0,0,1-.58-.58v-.39a.59.59,0,0,1,.58-.58H446a.58.58,0,0,1,.58.58Zm0-3.1a.58.58,0,0,1-.58.58h-8.13a.59.59,0,0,1-.58-.58v-.38a.59.59,0,0,1,.58-.58H446a.58.58,0,0,1,.58.58Zm0-3.48v.39A.58.58,0,0,1,446,17h-8.13a.59.59,0,0,1-.58-.58v-.39a.59.59,0,0,1,.58-.58H446A.58.58,0,0,1,446.55,16.05Zm4.64-5.52v.3H445V4.64h.3a1.15,1.15,0,0,1,.82.34l4.73,4.74A1.13,1.13,0,0,1,451.19,10.53Z" transform="translate(-23.24 -0.86)"/><text class="cls-23" transform="translate(409.96 12.15)">V<tspan class="cls-24" x="6.83" y="0">3</tspan></text><text class="cls-22" transform="translate(410.69 41.5)">V1</text><path class="cls-6" d="M451.76,70.92v.29h-6.1v-6.1H446a1.14,1.14,0,0,1,.8.33l4.67,4.67A1.11,1.11,0,0,1,451.76,70.92Zm-6.48,1.81a1.15,1.15,0,0,1-1.15-1.14V65.11H434.6a1.14,1.14,0,0,0-1.14,1.14V88.37a1.14,1.14,0,0,0,1.14,1.14h16a1.14,1.14,0,0,0,1.15-1.14V72.73ZM439.33,84.2a.28.28,0,0,1-.37,0h0l-3.09-2.9a.27.27,0,0,1,0-.37h0L439,78a.27.27,0,0,1,.37,0h0l.93,1a.27.27,0,0,1,0,.37h0l-1.94,1.71,1.94,1.71a.25.25,0,0,1,0,.36h0l-.93,1Zm2.44,2.4-1.31-.38a.26.26,0,0,1-.17-.32l2.93-10.08a.26.26,0,0,1,.32-.18l1.3.38a.26.26,0,0,1,.18.32h0l-2.93,10.09a.26.26,0,0,1-.32.17Zm7.67-5.29-3.1,2.9a.26.26,0,0,1-.36,0h0l-.93-1a.25.25,0,0,1,0-.36h0L447,81.12l-1.94-1.71a.25.25,0,0,1,0-.36h0l.93-1a.25.25,0,0,1,.36,0h0l3.1,2.9a.27.27,0,0,1,0,.37Z" transform="translate(-23.24 -0.86)"/><text class="cls-22" transform="translate(410.67 73.06)">V4</text><text class="cls-26" transform="translate(375.42 71.61)">Δ<tspan class="cls-27" x="7.52" y="0">3</tspan></text><text class="cls-25" transform="translate(119.75 266.95)">Δ1</text><text class="cls-7" transform="translate(230.69 152.53) rotate(-45.17)">git <tspan class="cls-28" x="11.95" y="0">branch</tspan></text><text class="cls-7" transform="translate(434.71 124.24) rotate(54.61)">git <tspan class="cls-29" x="11.95" y="0">merge</tspan></text><text class="cls-30" transform="translate(83.57 182.03)">C0</text><text class="cls-30" transform="translate(149.43 182.03)">C1</text><text class="cls-30" transform="translate(211.98 182.03)">C2</text><text class="cls-30" transform="translate(456.64 182.03)">C4</text><text class="cls-30" transform="translate(275.73 116.52)">C2</text><text class="cls-30" transform="translate(341.24 116.52)">C3</text><text class="cls-30" transform="translate(407.57 116.52)">C4</text></svg>