<svg id="Layer_1" data-name="Layer 1" xmlns="http://www.w3.org/2000/svg" viewBox="0 0 714.02 209.58"><defs><style>.cls-1,.cls-11,.cls-21,.cls-3{fill:none;}.cls-1{stroke:#b07aa1;}.cls-1,.cls-11,.cls-21,.cls-25,.cls-27,.cls-28,.cls-3{stroke-miterlimit:10;}.cls-2,.cls-26,.cls-29{fill:#fff;}.cls-21,.cls-25,.cls-27,.cls-28,.cls-3{stroke:#333;}.cls-12,.cls-14,.cls-16,.cls-18,.cls-22,.cls-23,.cls-4,.cls-5{fill:#333;}.cls-5{font-size:10px;letter-spacing:0.03em;}.cls-16,.cls-5{font-family:Helvetica-Bold, Helvetica;font-weight:700;}.cls-12,.cls-14,.cls-17,.cls-18,.cls-22,.cls-23,.cls-26,.cls-29,.cls-6,.cls-7,.cls-8{font-family:Helvetica;}.cls-17,.cls-6,.cls-7,.cls-8{font-weight:400;}.cls-6{letter-spacing:0.03em;}.cls-7{letter-spacing:0.01em;}.cls-25,.cls-9{fill:#4e7aa7;}.cls-10,.cls-27{fill:#f28e28;}.cls-10,.cls-20,.cls-27,.cls-28{opacity:0.8;}.cls-11{stroke:#9c755f;}.cls-12{font-size:9.22px;letter-spacing:0.03em;}.cls-13{fill:#9c755f;letter-spacing:0.03em;}.cls-14{font-size:9.22px;letter-spacing:0.03em;}.cls-15{fill:#b07aa1;letter-spacing:0.03em;}.cls-16{font-size:19.59px;letter-spacing:0.03em;}.cls-17{letter-spacing:0.03em;}.cls-18,.cls-22,.cls-23{font-size:9px;}.cls-18{letter-spacing:-0.01em;}.cls-19{letter-spacing:0.03em;}.cls-20,.cls-28{fill:#59a14e;}.cls-21{stroke-width:0.5px;}.cls-22{letter-spacing:0.03em;}.cls-23{letter-spacing:0.03em;}.cls-24{letter-spacing:0.01em;}.cls-25,.cls-27,.cls-28{stroke-width:0.75px;}.cls-26,.cls-29{font-size:12.68px;}.cls-26{letter-spacing:0.03em;}.cls-29{letter-spacing:0.03em;}.cls-30{letter-spacing:0.01em;}</style></defs><title>gitbranching</title><line class="cls-1" x1="503.32" y1="123.19" x2="545.2" y2="178.57"/><line class="cls-2" x1="279.23" y1="191.44" x2="538.85" y2="191.44"/><line class="cls-3" x1="279.23" y1="191.44" x2="531.67" y2="191.44"/><polygon class="cls-4" points="530.21 196.43 538.85 191.44 530.21 186.45 530.21 196.43"/><text class="cls-5" transform="translate(47.31 166.11)">1<tspan class="cls-6" x="5.86" y="0">. </tspan><tspan class="cls-7" x="12.02" y="0">W</tspan><tspan class="cls-8" x="21.58" y="0">rangle</tspan><tspan class="cls-8"><tspan x="15.26" y="12">data</tspan></tspan></text><text class="cls-5" transform="translate(135.33 166.11)">2.<tspan class="cls-8" x="8.94" y="0" xml:space="preserve"> Fit</tspan><tspan class="cls-8"><tspan x="-5" y="12">models</tspan></tspan></text><circle class="cls-9" cx="39.87" cy="191.44" r="18.14"/><line class="cls-3" x1="58.02" y1="191.44" x2="88.96" y2="191.44"/><polygon class="cls-4" points="87.5 196.43 96.13 191.44 87.5 186.45 87.5 196.43"/><circle class="cls-9" cx="113.85" cy="191.44" r="18.14"/><line class="cls-3" x1="131.99" y1="191.44" x2="162.94" y2="191.44"/><polygon class="cls-4" points="161.48 196.43 170.11 191.44 161.48 186.45 161.48 196.43"/><circle class="cls-9" cx="187.43" cy="191.44" r="18.14"/><circle class="cls-10" cx="336.04" cy="116.85" r="18.14"/><line class="cls-3" x1="354.18" y1="115.14" x2="385.12" y2="115.14"/><polygon class="cls-4" points="383.66 120.13 392.3 115.14 383.66 110.15 383.66 120.13"/><circle class="cls-10" cx="410.74" cy="116.85" r="18.14"/><line class="cls-11" x1="266.42" y1="174.16" x2="319.24" y2="121.33"/><text class="cls-12" transform="matrix(0.7, -0.71, 0.71, 0.7, 270.04, 163.64)">git <tspan class="cls-13" x="13.41" y="0">branch</tspan></text><line class="cls-11" x1="496.56" y1="101.11" x2="549.38" y2="48.28"/><text class="cls-12" transform="matrix(0.7, -0.71, 0.71, 0.7, 500.18, 90.59)">git <tspan class="cls-13" x="13.41" y="0">branch</tspan></text><text class="cls-14" transform="matrix(0.58, 0.82, -0.82, 0.58, 513.61, 127.4)">git <tspan class="cls-15" x="13.41" y="0">merge</tspan></text><text class="cls-16" transform="translate(25.84 197.63)">C0</text><text class="cls-16" transform="translate(101.75 197.63)">C1</text><text class="cls-16" transform="translate(173.85 197.63)">C2</text><text class="cls-5" transform="translate(201.63 166.11)">3.<tspan class="cls-8" x="8.94" y="0" xml:space="preserve"> Check</tspan><tspan class="cls-8"><tspan x="-0.43" y="12">residuals</tspan></tspan></text><text class="cls-5" transform="translate(353.45 89.49)">4.<tspan class="cls-17" x="8.94" y="0" xml:space="preserve"> Re-fit</tspan><tspan class="cls-8"><tspan x="1.84" y="12">models</tspan></tspan></text><line class="cls-3" x1="205.56" y1="191.44" x2="236.5" y2="191.44"/><polygon class="cls-4" points="235.04 196.43 243.68 191.44 235.04 186.45 235.04 196.43"/><line class="cls-3" x1="575.03" y1="191.44" x2="678.67" y2="191.44"/><polygon class="cls-4" points="677.21 196.43 685.84 191.44 677.21 186.45 677.21 196.43"/><circle class="cls-9" cx="261" cy="191.44" r="18.14"/><text class="cls-16" transform="translate(247.42 197.63)">C3</text><circle class="cls-9" cx="557.47" cy="191.44" r="18.14"/><text class="cls-16" transform="translate(544.42 197.63)">C5</text><text class="cls-16" transform="translate(321.96 122.13)">C3</text><text class="cls-16" transform="translate(397.46 122.13)">C4</text><line class="cls-3" x1="430.2" y1="115.14" x2="461.14" y2="115.14"/><polygon class="cls-4" points="459.68 120.13 468.32 115.14 459.68 110.15 459.68 120.13"/><circle class="cls-10" cx="486.76" cy="116.85" r="18.14"/><text class="cls-5" transform="translate(420 89.49)">5.<tspan class="cls-17" x="8.94" y="0" xml:space="preserve"> Re-check</tspan><tspan class="cls-8"><tspan x="6.97" y="12">residuals</tspan></tspan></text><text class="cls-5" transform="translate(591.4 8.6)">6<tspan class="cls-8" x="5.86" y="0">. Fit</tspan><tspan class="cls-8"><tspan x="-14.25" y="12">alternative </tspan><tspan x="-2.35" y="24">model</tspan></tspan></text><text class="cls-5" transform="translate(653.71 8.6)">7.<tspan class="cls-17" x="8.94" y="0" xml:space="preserve"> Continued</tspan><tspan class="cls-8"><tspan x="18.28" y="12">data </tspan><tspan x="4.04" y="24">exploration</tspan></tspan></text><text class="cls-18" transform="translate(427.73 40.3)">T<tspan class="cls-19" x="5.44" y="0">rying an alternate </tspan><tspan class="cls-19"><tspan x="-1.16" y="10.8">exploratory analysis</tspan></tspan></text><text class="cls-16" transform="translate(473.48 122.13)">C5</text><circle class="cls-20" cx="565.37" cy="41.81" r="18.14"/><line class="cls-3" x1="583.51" y1="40.1" x2="614.45" y2="40.1"/><polygon class="cls-4" points="612.99 45.09 621.63 40.1 612.99 35.11 612.99 45.09"/><line class="cls-3" x1="658.6" y1="40.1" x2="689.54" y2="40.1"/><polygon class="cls-4" points="688.08 45.09 696.72 40.1 688.08 35.11 688.08 45.09"/><circle class="cls-20" cx="640.07" cy="41.81" r="18.14"/><text class="cls-16" transform="translate(551.29 47.08)">C5</text><text class="cls-16" transform="translate(626.79 47.08)">C6</text><path class="cls-21" d="M489.23,71.51c0,10,6,18.33,14.08,20.26" transform="translate(-13.64 -17.83)"/><polygon class="cls-4" points="488.61 76.22 493.23 74.36 489.31 71.28 488.61 76.22"/><text class="cls-22" transform="translate(519.64 105.28)">Models now ok, keep this<tspan x="-5.93" y="10.8">version stable for reference </tspan></text><path class="cls-21" d="M566.3,138.22c0,10-6,18.33-14.07,20.26" transform="translate(-13.64 -17.83)"/><polygon class="cls-4" points="538.95 138 535.03 141.07 539.65 142.94 538.95 138"/><text class="cls-23" transform="translate(208.15 108.2)">Residuals no good,<tspan x="-5.97" y="10.8">try a di</tspan><tspan class="cls-24" x="23.2" y="10.8">f</tspan><tspan x="25.81" y="10.8">ferent analysis</tspan></text><path class="cls-21" d="M269.3,139.4c0,10,6,18.33,14.08,20.26" transform="translate(-13.64 -17.83)"/><polygon class="cls-4" points="268.68 144.12 273.3 142.25 269.38 139.18 268.68 144.12"/><rect class="cls-25" x="0.38" y="137.45" width="81.15" height="13.95"/><text class="cls-26" transform="translate(3.91 148.84)">Main Branch</text><rect class="cls-27" x="234.25" y="72.49" width="81.15" height="13.95"/><text class="cls-26" transform="translate(246.09 83.89)">Branch X</text><rect class="cls-28" x="459.51" y="6.94" width="81.15" height="13.95"/><text class="cls-29" transform="translate(471.35 18.34)">Branch<tspan class="cls-30" x="42.45" y="0" xml:space="preserve"> Y</tspan></text></svg>