<svg id="Layer_1" data-name="Layer 1" xmlns="http://www.w3.org/2000/svg" viewBox="0 0 617.08 179.12"><defs><style>.cls-1,.cls-13,.cls-27,.cls-3{fill:none;}.cls-1{stroke:#b07aa1;}.cls-1,.cls-13,.cls-27,.cls-3,.cls-32,.cls-34,.cls-35{stroke-miterlimit:10;}.cls-2,.cls-33{fill:#fff;}.cls-27,.cls-3,.cls-32,.cls-34,.cls-35{stroke:#333;}.cls-14,.cls-17,.cls-18,.cls-20,.cls-23,.cls-28,.cls-31,.cls-4,.cls-5,.cls-9{fill:#333;}.cls-14,.cls-18,.cls-20,.cls-5,.cls-9{font-size:8px;}.cls-18,.cls-20,.cls-5,.cls-9{font-family:ProximaNova-Bold, Proxima Nova;font-weight:700;}.cls-10,.cls-22,.cls-5{letter-spacing:0.03em;}.cls-10,.cls-14,.cls-21,.cls-23,.cls-28,.cls-31,.cls-6,.cls-7,.cls-8{font-family:ProximaNova-Medium, Proxima Nova;font-weight:500;}.cls-14,.cls-19,.cls-6,.cls-9{letter-spacing:0.03em;}.cls-7{letter-spacing:0em;}.cls-11,.cls-32{fill:#4e7aa7;}.cls-12,.cls-34{fill:#f28e28;}.cls-12,.cls-26,.cls-34,.cls-35{opacity:0.8;}.cls-13{stroke:#9c755f;}.cls-15{fill:#9c755f;}.cls-15,.cls-16,.cls-17,.cls-33{font-family:ProximaNova-Semibold, Proxima Nova;font-weight:600;}.cls-16{fill:#b07aa1;}.cls-17{font-size:17px;letter-spacing:0.03em;}.cls-20{letter-spacing:-0.06em;}.cls-21{letter-spacing:-0.01em;}.cls-23,.cls-28,.cls-31{font-size:7px;}.cls-23{letter-spacing:-0.05em;}.cls-24,.cls-28{letter-spacing:0.03em;}.cls-25{letter-spacing:-0.01em;}.cls-26,.cls-35{fill:#59a14e;}.cls-27{stroke-width:0.5px;}.cls-29{letter-spacing:0.01em;}.cls-30{letter-spacing:0.03em;}.cls-32,.cls-34,.cls-35{stroke-width:0.75px;}.cls-33{font-size:11px;letter-spacing:0.03em;}</style></defs><title>gitbranching</title><line class="cls-1" x1="436.73" y1="104.16" x2="473.06" y2="152.21"/><line class="cls-2" x1="242.31" y1="163.37" x2="467.55" y2="163.37"/><line class="cls-3" x1="242.31" y1="163.37" x2="460.38" y2="163.37"/><polygon class="cls-4" points="458.92 168.36 467.55 163.37 458.92 158.39 458.92 168.36"/><text class="cls-5" transform="translate(43.74 143.32)">1.<tspan class="cls-6" x="5.82" y="0"> </tspan><tspan class="cls-7" x="8.12" y="0">W</tspan><tspan class="cls-6" x="15.26" y="0">rangle</tspan><tspan class="cls-8"><tspan x="11.28" y="9.6">data</tspan></tspan></text><text class="cls-9" transform="translate(118.39 143.32)">2<tspan class="cls-8" x="5.04" y="0">. Fit</tspan><tspan class="cls-10"><tspan x="-4.16" y="9.6">models</tspan></tspan></text><circle class="cls-11" cx="34.64" cy="163.37" r="15.74"/><line class="cls-3" x1="50.38" y1="163.37" x2="76.28" y2="163.37"/><polygon class="cls-4" points="74.82 168.36 83.45 163.37 74.82 158.39 74.82 168.36"/><circle class="cls-11" cx="98.83" cy="163.37" r="15.74"/><line class="cls-3" x1="114.57" y1="163.37" x2="140.46" y2="163.37"/><polygon class="cls-4" points="139 168.36 147.64 163.37 139 158.39 139 168.36"/><circle class="cls-11" cx="162.67" cy="163.37" r="15.74"/><circle class="cls-12" cx="291.59" cy="98.66" r="15.74"/><line class="cls-3" x1="307.34" y1="97.18" x2="333.23" y2="97.18"/><polygon class="cls-4" points="331.77 102.16 340.4 97.18 331.77 92.19 331.77 102.16"/><circle class="cls-12" cx="356.4" cy="98.66" r="15.74"/><line class="cls-13" x1="231.19" y1="148.38" x2="277.02" y2="102.55"/><text class="cls-14" transform="translate(234.34 139.25) rotate(-45.17)">git <tspan class="cls-15" x="11.95" y="0">branch</tspan></text><line class="cls-13" x1="430.86" y1="85" x2="476.7" y2="39.17"/><text class="cls-14" transform="translate(434.01 75.88) rotate(-45.17)">git <tspan class="cls-15" x="11.95" y="0">branch</tspan></text><text class="cls-14" transform="translate(445.65 107.81) rotate(54.61)">git <tspan class="cls-16" x="11.95" y="0">merge</tspan></text><text class="cls-17" transform="translate(22.47 168.74)">C0</text><text class="cls-17" transform="translate(88.33 168.74)">C1</text><text class="cls-17" transform="translate(150.88 168.74)">C2</text><text class="cls-9" transform="translate(175.08 143.32)">3.<tspan class="cls-10" x="7.22" y="0" xml:space="preserve"> Check</tspan><tspan class="cls-10"><tspan x="-0.33" y="9.6">residuals</tspan></tspan></text><text class="cls-18" transform="translate(308.52 76.84)"><tspan class="cls-19">4.</tspan><tspan class="cls-6" x="7.3" y="0"> </tspan><tspan class="cls-8" x="9.61" y="0">R</tspan><tspan class="cls-6" x="14.55" y="0">e-fit</tspan><tspan class="cls-10"><tspan x="0.89" y="9.6">models</tspan></tspan></text><line class="cls-3" x1="178.39" y1="163.37" x2="204.29" y2="163.37"/><polygon class="cls-4" points="202.83 168.36 211.46 163.37 202.83 158.39 202.83 168.36"/><line class="cls-3" x1="498.95" y1="163.37" x2="587.91" y2="163.37"/><polygon class="cls-4" points="586.45 168.36 595.09 163.37 586.45 158.39 586.45 168.36"/><circle class="cls-11" cx="226.49" cy="163.37" r="15.74"/><text class="cls-17" transform="translate(214.71 168.74)">C3</text><circle class="cls-11" cx="483.71" cy="163.37" r="15.74"/><text class="cls-17" transform="translate(472.39 168.74)">C5</text><text class="cls-17" transform="translate(279.38 103.24)">C3</text><text class="cls-17" transform="translate(344.89 103.24)">C4</text><line class="cls-3" x1="373.29" y1="97.18" x2="399.19" y2="97.18"/><polygon class="cls-4" points="397.73 102.16 406.36 97.18 397.73 92.19 397.73 102.16"/><circle class="cls-12" cx="422.36" cy="98.66" r="15.74"/><text class="cls-18" transform="translate(366.88 76.84)"><tspan class="cls-19">5.</tspan><tspan class="cls-10" x="7.39" y="0"> </tspan><tspan class="cls-8" x="9.7" y="0">R</tspan><tspan class="cls-6" x="14.64" y="0">e-check</tspan><tspan class="cls-10"><tspan x="5.17" y="9.6">residuals</tspan></tspan></text><text class="cls-9" transform="translate(513.97 6.66)">6.<tspan class="cls-10" x="7.39" y="0" xml:space="preserve"> Fit</tspan><tspan class="cls-8"><tspan x="-11.51" y="9.6">alternative </tspan></tspan><tspan class="cls-10"><tspan x="-2.06" y="19.2">model</tspan></tspan></text><text class="cls-20" transform="translate(569.64 6.66)">7<tspan class="cls-19" x="3.85" y="0">.</tspan><tspan class="cls-10" x="6.14" y="0" xml:space="preserve"> Continued</tspan><tspan class="cls-10"><tspan x="14.3" y="9.6">data </tspan></tspan><tspan class="cls-21"><tspan x="2.65" y="19.2">e</tspan><tspan class="cls-22" x="7.08" y="19.2">xploration</tspan></tspan></text><text class="cls-23" transform="translate(375.17 32.25)">T<tspan class="cls-24" x="3.66" y="0">rying an alternate </tspan><tspan class="cls-25"><tspan x="-0.95" y="8.4">e</tspan><tspan class="cls-24" x="2.93" y="8.4">xploratory analysis</tspan></tspan></text><text class="cls-17" transform="translate(410.84 103.24)">C5</text><circle class="cls-26" cx="490.56" cy="33.56" r="15.74"/><line class="cls-3" x1="506.3" y1="32.07" x2="532.2" y2="32.07"/><polygon class="cls-4" points="530.74 37.06 539.37 32.07 530.74 27.09 530.74 37.06"/><line class="cls-3" x1="571.45" y1="32.07" x2="597.34" y2="32.07"/><polygon class="cls-4" points="595.88 37.06 604.52 32.07 595.88 27.09 595.88 37.06"/><circle class="cls-26" cx="555.37" cy="33.56" r="15.74"/><text class="cls-17" transform="translate(478.35 38.13)">C5</text><text class="cls-17" transform="translate(543.85 38.13)">C6</text><path class="cls-27" d="M416.89,52.25c0,8.48,5,15.58,11.75,17.46" transform="translate(-4.22 -8.4)"/><polygon class="cls-4" points="423.32 63.56 427.98 61.8 424.12 58.64 423.32 63.56"/><text class="cls-28" transform="translate(447.05 88.62)">Models now ok, <tspan class="cls-29" x="53.63" y="0">k</tspan><tspan class="cls-30" x="57.31" y="0">eep this</tspan><tspan x="-4.65" y="8.4">version stable for reference </tspan></text><path class="cls-27" d="M483.76,110.13c0,8.48-5,15.58-11.75,17.46" transform="translate(-4.22 -8.4)"/><polygon class="cls-4" points="468.1 116.52 464.24 119.67 468.9 121.44 468.1 116.52"/><text class="cls-31" transform="translate(184.86 91.15)">R<tspan class="cls-24" x="4.33" y="0">esiduals no good,</tspan><tspan class="cls-24"><tspan x="-5.04" y="8.4">try a different analysis</tspan></tspan></text><path class="cls-27" d="M226.08,111.16c0,8.48,5,15.57,11.74,17.45" transform="translate(-4.22 -8.4)"/><polygon class="cls-4" points="232.5 122.47 237.16 120.7 233.3 117.55 232.5 122.47"/><rect class="cls-32" x="0.38" y="116.53" width="70.4" height="12.1"/><text class="cls-33" transform="translate(3.44 126.42)">Main Branch</text><rect class="cls-34" x="203.29" y="60.17" width="70.4" height="12.1"/><text class="cls-33" transform="translate(213.55 70.06)">Branch X</text><rect class="cls-35" x="398.72" y="3.3" width="70.4" height="12.1"/><text class="cls-33" transform="translate(408.99 13.19)">Branch Y</text></svg>