<svg id="Layer_1" data-name="Layer 1" xmlns="http://www.w3.org/2000/svg" viewBox="0 0 610.15 166.96"><defs><style>.cls-1,.cls-3,.cls-9{fill:none;}.cls-1{stroke:#b07aa1;}.cls-1,.cls-10,.cls-12,.cls-13,.cls-3,.cls-9{stroke-miterlimit:10;}.cls-11,.cls-2{fill:#fff;}.cls-10,.cls-12,.cls-13,.cls-3{stroke:#333;}.cls-16,.cls-4,.cls-5{fill:#333;}.cls-5{font-size:8px;font-family:ProximaNova-Medium, Proxima Nova;font-weight:500;letter-spacing:0.03em;}.cls-6{font-family:ProximaNova-Bold, Proxima Nova;font-weight:700;letter-spacing:0.03em;}.cls-10,.cls-7{fill:#4e7aa7;}.cls-12,.cls-8{fill:#f28e28;}.cls-12,.cls-13,.cls-17,.cls-8{opacity:0.8;}.cls-9{stroke:#9c755f;}.cls-10,.cls-12,.cls-13{stroke-width:0.75px;}.cls-11{font-size:11px;letter-spacing:0.03em;}.cls-11,.cls-14,.cls-15,.cls-16{font-family:ProximaNova-Semibold, Proxima Nova;font-weight:600;}.cls-13,.cls-17{fill:#59a14e;}.cls-14{fill:#9c755f;}.cls-15{fill:#b07aa1;}.cls-16{font-size:17px;letter-spacing:0.03em;}</style></defs><title>gitbranching</title><line class="cls-1" x1="368.5" y1="86.51" x2="408.21" y2="140.06"/><line class="cls-2" x1="432.68" y1="151.22" x2="578.67" y2="151.22"/><line class="cls-3" x1="432.68" y1="151.22" x2="571.49" y2="151.22"/><polygon class="cls-4" points="570.04 156.21 578.67 151.22 570.04 146.24 570.04 156.21"/><text class="cls-5" transform="translate(108.26 136.69)">git <tspan class="cls-6" x="11.95" y="0">commit</tspan></text><text class="cls-5" transform="translate(172.33 136.69)">git <tspan class="cls-6" x="11.95" y="0">commit</tspan></text><text class="cls-5" transform="translate(301.15 73.91)">git <tspan class="cls-6" x="11.95" y="0">commit</tspan></text><text class="cls-5" transform="translate(434.26 6.66)">git <tspan class="cls-6" x="11.95" y="0">commit</tspan></text><text class="cls-5" transform="translate(500.21 6.66)">git <tspan class="cls-6" x="11.95" y="0">commit</tspan></text><circle class="cls-7" cx="95.74" cy="151.22" r="15.74"/><line class="cls-3" x1="111.48" y1="151.22" x2="137.38" y2="151.22"/><polygon class="cls-4" points="135.92 156.21 144.56 151.22 135.92 146.24 135.92 156.21"/><circle class="cls-7" cx="159.93" cy="151.22" r="15.74"/><line class="cls-3" x1="175.67" y1="151.22" x2="201.56" y2="151.22"/><polygon class="cls-4" points="200.1 156.21 208.74 151.22 200.1 146.24 200.1 156.21"/><circle class="cls-7" cx="223.77" cy="151.22" r="15.74"/><circle class="cls-8" cx="287.95" cy="86.51" r="15.74"/><line class="cls-3" x1="303.69" y1="85.03" x2="329.58" y2="85.03"/><polygon class="cls-4" points="328.13 90.01 336.76 85.03 328.13 80.04 328.13 90.01"/><circle class="cls-7" cx="417.19" cy="151.22" r="15.74"/><circle class="cls-8" cx="352.76" cy="86.51" r="15.74"/><line class="cls-9" x1="227.55" y1="136.23" x2="273.38" y2="90.4"/><line class="cls-1" x1="555.52" y1="35" x2="588.66" y2="137.86"/><line class="cls-2" x1="239.51" y1="151.22" x2="401.45" y2="151.22"/><line class="cls-3" x1="239.51" y1="151.22" x2="394.27" y2="151.22"/><polygon class="cls-4" points="392.81 156.21 401.45 151.22 392.81 146.24 392.81 156.21"/><rect class="cls-10" x="0.38" y="143.62" width="70.4" height="12.1"/><text class="cls-11" transform="translate(3.44 153.51)">Main Branch</text><rect class="cls-12" x="171.52" y="76.86" width="70.4" height="12.1"/><text class="cls-11" transform="translate(181.79 86.75)">Branch X</text><rect class="cls-13" x="299.68" y="2.23" width="70.4" height="12.1"/><text class="cls-11" transform="translate(309.95 12.11)">Branch Y</text><text class="cls-5" transform="translate(230.69 127.1) rotate(-45.17)">git <tspan class="cls-14" x="11.95" y="0">branch</tspan></text><line class="cls-9" x1="360.73" y1="72.33" x2="406.57" y2="26.49"/><text class="cls-5" transform="translate(363.88 63.2) rotate(-45.17)">git <tspan class="cls-14" x="11.95" y="0">branch</tspan></text><text class="cls-5" transform="translate(380.8 95.66) rotate(54.61)">git <tspan class="cls-15" x="11.95" y="0">merge</tspan></text><text class="cls-5" transform="translate(572.42 70.52) rotate(71.7)">git <tspan class="cls-15" x="11.95" y="0">merge</tspan></text><text class="cls-16" transform="translate(83.57 156.59)">C0</text><text class="cls-16" transform="translate(149.43 156.59)">C1</text><text class="cls-16" transform="translate(211.98 156.59)">C2</text><text class="cls-16" transform="translate(405.87 156.59)">C3</text><circle class="cls-7" cx="594.41" cy="151.22" r="15.74"/><text class="cls-16" transform="translate(583.09 156.59)">C5</text><text class="cls-16" transform="translate(275.73 91.09)">C2</text><text class="cls-16" transform="translate(341.24 91.09)">C3</text><circle class="cls-17" cx="420.43" cy="20.88" r="15.74"/><line class="cls-3" x1="436.17" y1="19.39" x2="462.07" y2="19.39"/><polygon class="cls-4" points="460.61 24.38 469.24 19.39 460.61 14.41 460.61 24.38"/><circle class="cls-17" cx="485.24" cy="20.88" r="15.74"/><text class="cls-16" transform="translate(408.22 25.45)">C3</text><text class="cls-16" transform="translate(473.73 25.45)">C4</text><line class="cls-3" x1="501.22" y1="19.39" x2="527.11" y2="19.39"/><polygon class="cls-4" points="525.65 24.38 534.29 19.39 525.65 14.41 525.65 24.38"/><circle class="cls-17" cx="550.29" cy="20.88" r="15.74"/><text class="cls-16" transform="translate(538.77 25.45)">C5</text></svg>