<svg id="Layer_1" data-name="Layer 1" xmlns="http://www.w3.org/2000/svg" viewBox="0 0 265.15 306.17"><defs><style>.cls-1{fill:#2c3e50;stroke:#444545;stroke-width:9px;}.cls-1,.cls-7{stroke-miterlimit:10;}.cls-2{font-size:39px;font-family:ProximaNova-Semibold, Proxima Nova;font-weight:600;letter-spacing:0.03em;}.cls-2,.cls-5,.cls-6,.cls-7{fill:#fff;}.cls-3{letter-spacing:0.05em;}.cls-4{letter-spacing:0.05em;}.cls-5,.cls-7{fill-rule:evenodd;}.cls-7{stroke:#333;}</style></defs><title>starter-guide-logo</title><polygon class="cls-1" points="260.65 227.03 260.65 79.14 132.57 5.2 4.5 79.14 4.5 227.03 132.57 300.97 260.65 227.03"/><text class="cls-2" transform="translate(70.42 76.74)">S<tspan class="cls-3" x="24.53" y="0">tarter </tspan><tspan class="cls-4"><tspan x="14.58" y="46.8">Guide</tspan></tspan></text><path class="cls-5" d="M275,286.47a49.89,49.89,0,0,0-15.77,97.22c2.5.47,3.41-1.08,3.41-2.4s0-5.11-.07-9.28c-13.87,3-16.8-5.89-16.8-5.89-2.27-5.76-5.54-7.3-5.54-7.3-4.53-3.09.34-3,.34-3,5,.35,7.65,5.14,7.65,5.14,4.45,7.63,11.67,5.42,14.51,4.15a10.59,10.59,0,0,1,3.17-6.67c-11.08-1.26-22.73-5.54-22.73-24.66a19.33,19.33,0,0,1,5.14-13.39c-.51-1.25-2.22-6.33.49-13.2,0,0,4.19-1.34,13.72,5.11a47.27,47.27,0,0,1,25,0c9.52-6.45,13.71-5.11,13.71-5.11,2.71,6.87,1,11.95.49,13.2a19.28,19.28,0,0,1,5.13,13.39c0,19.16-11.67,23.38-22.78,24.62,1.79,1.54,3.39,4.58,3.39,9.23,0,6.68-.06,12-.06,13.69,0,1.33.9,2.89,3.42,2.4A49.89,49.89,0,0,0,275,286.47Z" transform="translate(-202.92 -155.36)"/><path class="cls-6" d="M244,358.1c-.11.25-.5.32-.85.15s-.57-.5-.45-.75a.63.63,0,0,1,.86-.16c.36.17.57.51.44.76Zm-.61-.46" transform="translate(-202.92 -155.36)"/><path class="cls-6" d="M246,360.35c-.23.22-.7.12-1-.23a.77.77,0,0,1-.15-1c.24-.22.7-.11,1,.23s.39.82.14,1Zm-.47-.51" transform="translate(-202.92 -155.36)"/><path class="cls-6" d="M248,363.22c-.3.22-.8,0-1.11-.43a.87.87,0,0,1,0-1.19c.31-.21.81,0,1.12.42s.3,1,0,1.2Zm0,0" transform="translate(-202.92 -155.36)"/><path class="cls-6" d="M250.65,366a1,1,0,0,1-1.29-.19,1,1,0,0,1-.28-1.28c.28-.3.86-.21,1.29.2s.57,1,.28,1.27Zm0,0" transform="translate(-202.92 -155.36)"/><path class="cls-6" d="M254.36,367.61c-.12.39-.68.57-1.24.4s-.94-.63-.82-1,.68-.58,1.25-.4.93.62.81,1Zm0,0" transform="translate(-202.92 -155.36)"/><path class="cls-6" d="M258.45,367.91c0,.41-.47.75-1.06.76s-1.08-.32-1.09-.72.47-.76,1.07-.77,1.08.32,1.08.73Zm0,0" transform="translate(-202.92 -155.36)"/><path class="cls-6" d="M262.24,367.26c.08.4-.34.82-.93.93s-1.11-.15-1.18-.54.34-.83.92-.93,1.12.14,1.19.54Zm0,0" transform="translate(-202.92 -155.36)"/><path class="cls-5" d="M396.35,367.73c-31.3,0-56.67-17-56.67-38s25.37-37.95,56.67-37.95,56.67,17,56.67,37.95S427.65,367.73,396.35,367.73ZM405,306.66c-23.79,0-43.07,11.62-43.07,25.95s19.28,25.94,43.07,25.94,41.35-7.94,41.35-25.94S428.81,306.66,405,306.66Z" transform="translate(-202.92 -155.36)"/><path class="cls-7" d="M426,350.61a42,42,0,0,1,5.42,2,10.45,10.45,0,0,1,2.76,2,7.32,7.32,0,0,1,1.25,1.8l13.52,22.79H427.08L416.87,360s-2.1-3.6-3.38-4.64c-1.08-.87-1.53-1.18-2.6-1.18H405.7v25H386.38V315.39H425.2s17.68.32,17.68,17.14S426,350.61,426,350.61Zm-8.41-21.37h-11.7v10.85h11.71s5.43,0,5.43-5.52S417.57,329.24,417.57,329.24Z" transform="translate(-202.92 -155.36)"/></svg>